<svg xmlns="http://www.w3.org/2000/svg" data-name="Layer 1" viewBox="0 0 64 64" id="Winner"><path d="M44.94 26.36l1.85.76a17.07 17.07 0 0 0 .67-2l-1.93-.52A15.49 15.49 0 0 1 44.94 26.36zM43.11 29.52l1.59 1.22A17 17 0 0 0 45.86 29l-1.73-1A14.39 14.39 0 0 1 43.11 29.52zM44.92 15.59l1.84-.77A16.27 16.27 0 0 0 45.83 13L44.1 14A13.8 13.8 0 0 1 44.92 15.59zM40.53 32.11l1.22 1.58a15.82 15.82 0 0 0 1.57-1.38L41.9 30.9A15.79 15.79 0 0 1 40.53 32.11zM45.88 19.11l2-.26a17.73 17.73 0 0 0-.42-2.05l-1.93.52A15.79 15.79 0 0 1 45.88 19.11zM45.88 22.83l2 .25A15.91 15.91 0 0 0 48 21v-.06L46 21A13.94 13.94 0 0 1 45.88 22.83zM37.37 33.94l.77 1.84A16.27 16.27 0 0 0 40 34.85l-1-1.73A14.75 14.75 0 0 1 37.37 33.94zM44.66 11.21a15.94 15.94 0 0 0-1.39-1.56l-1.41 1.42a14.54 14.54 0 0 1 1.22 1.37zM19.32 30.76a17.22 17.22 0 0 0 1.38 1.57l1.41-1.42a16 16 0 0 1-1.21-1.37zM22.28 33.71A17 17 0 0 0 24 34.87l1-1.73a15.64 15.64 0 0 1-1.53-1zM33.84 34.88l.26 2a16.89 16.89 0 0 0 2-.4l-.51-1.94A13.65 13.65 0 0 1 33.84 34.88zM30.19 34.88l-.26 2A15.87 15.87 0 0 0 32 37h0l0-2A13.53 13.53 0 0 1 30.19 34.88zM25.89 35.79a15 15 0 0 0 2 .67l.51-1.93a12.58 12.58 0 0 1-1.73-.59zM20.87 12.5l-1.59-1.21A17 17 0 0 0 18.12 13l1.74 1A13.94 13.94 0 0 1 20.87 12.5zM19.05 15.67l-1.85-.76a17.07 17.07 0 0 0-.67 2l1.94.52A13.15 13.15 0 0 1 19.05 15.67zM18.11 19.2l-2-.25A15.68 15.68 0 0 0 16 21v0l2 0A15.53 15.53 0 0 1 18.11 19.2zM23.45 9.91L22.23 8.33a17.22 17.22 0 0 0-1.57 1.38l1.42 1.41A15.79 15.79 0 0 1 23.45 9.91zM18.12 22.86l-2 .26a15.82 15.82 0 0 0 .41 2.05l1.93-.52A13.84 13.84 0 0 1 18.12 22.86zM41.7 8.27A16.35 16.35 0 0 0 40 7.12L39 8.85a13.94 13.94 0 0 1 1.53 1zM33.78 7.11l.26-2A15.52 15.52 0 0 0 32 5H32L32 7A14.92 14.92 0 0 1 33.78 7.11zM38.08 6.19a17.18 17.18 0 0 0-2-.66l-.51 1.93A14.63 14.63 0 0 1 37.31 8zM30.13 7.12l-.27-2a16.17 16.17 0 0 0-2.05.41l.52 1.93A15.92 15.92 0 0 1 30.13 7.12zM19.07 26.38l-1.84.77A14.79 14.79 0 0 0 18.16 29l1.72-1A15.61 15.61 0 0 1 19.07 26.38zM26.61 8.08l-.78-1.85A16.27 16.27 0 0 0 24 7.16l1 1.73A13.15 13.15 0 0 1 26.61 8.08zM23.05 18.79a1 1 0 0 0 .23 1l3.65 3.74-.86 5.29a1 1 0 0 0 1.47 1L32 27.41l4.46 2.47a1 1 0 0 0 .48.12 1 1 0 0 0 .58-.18 1 1 0 0 0 .41-1l-.86-5.29 3.65-3.74a1 1 0 0 0 .23-1 1 1 0 0 0-.8-.67l-5-.76-2.24-4.78a1 1 0 0 0-1.82 0l-2.24 4.78-5 .76A1 1 0 0 0 23.05 18.79z" fill="#808080" class="color000000 svgShape"></path><path d="M1.65,45.18,14.2,49.8l4.62,12.55a1,1,0,0,0,.9.65h0a1,1,0,0,0,.91-.59l4.54-10a6.79,6.79,0,0,0,13.58,0l4.54,10a1,1,0,0,0,.91.59h0a1,1,0,0,0,.9-.65L49.8,49.8l12.55-4.62a1,1,0,0,0,.06-1.85L45.55,35.67a20,20,0,1,0-27.1,0L1.59,43.33a1,1,0,0,0,.06,1.85Zm34,10.08a4.79,4.79,0,0,1-8.4-3.95l2-10.52a17.59,17.59,0,0,0,5.42,0l2,10.52A4.75,4.75,0,0,1,35.69,55.26ZM14,21A18,18,0,1,1,32,39,18,18,0,0,1,14,21Z" fill="#808080" class="color000000 svgShape"></path></svg>