<svg id="SvgjsSvg1038" width="288" height="288" xmlns="http://www.w3.org/2000/svg" version="1.1" xmlns:xlink="http://www.w3.org/1999/xlink" xmlns:svgjs="http://svgjs.com/svgjs"><defs id="SvgjsDefs1039"></defs><g id="SvgjsG1040"><svg xmlns="http://www.w3.org/2000/svg" enable-background="new 0 0 64 64" viewBox="0 0 64 64" width="288" height="288"><path d="M61.7802734,22.4807129l-12.769043-12.769043c-0.28125-0.28125-0.7792969-0.28125-1.0605469,0l-7.4487305,7.4487305
	l-3.9016113,3.9016113c-0.2929688,0.2929688-0.2929688,0.7675781,0,1.0605469l1.243103,1.243103l-1.4417725,1.4417725
	l-1.2932739-1.2434692c-0.0322723-0.0310364-0.0715027-0.0493469-0.1077118-0.0735626
	c-0.0238037-0.0159302-0.0444946-0.0345612-0.0699005-0.047699c-0.0637207-0.0329132-0.1309204-0.0531006-0.2003632-0.0666046
	c-0.0175323-0.003479-0.0331879-0.0117188-0.0509949-0.0140076c-0.0884857-0.0108032-0.1781158-0.0058594-0.2660065,0.0151978
	c-0.0037079,0.0008698-0.00737-0.0003204-0.0110779,0.0006409l-6.6557465,1.7076874l-1.6245117-1.6854858l1.2775726-1.2775726
	c0.2929688-0.2929688,0.2929688-0.7675781,0-1.0605469l-3.9016113-3.9016113l-7.4487305-7.4487305
	c-0.28125-0.28125-0.7792969-0.28125-1.0605469,0l-12.769043,12.769043C2.0791016,22.6213379,2,22.8121338,2,23.0109863
	s0.0791016,0.3896484,0.2197266,0.5302734l7.4487305,7.4487305l3.9016113,3.9016113
	c0.1464844,0.1464844,0.3383789,0.2197266,0.5302734,0.2197266s0.3837891-0.0732422,0.5302734-0.2197266l1.2276764-1.2276764
	l1.3265991,1.3196869l-1.1707306,1.3764954c-0.253418,0.2973633-0.2351074,0.7397461,0.0410156,1.0158691l2.115509,2.115509
	l-0.3701477,0.3703308c-1.0715332,1.0715332-1.0722656,2.8205566,0.0036621,3.9038086l0.3522949,0.347168
	c0.557373,0.557373,1.2744141,0.8261719,2.029541,0.8041992c-0.0227051,0.7346191,0.2453613,1.4757843,0.8049316,2.0353546
	l0.355957,0.355957c0.5588379,0.5588379,1.2941895,0.822464,2.034668,0.8048859
	c-0.0212402,0.7324219,0.2468262,1.4713898,0.8041992,2.0287628l0.3566895,0.3565521
	c0.5588379,0.5588379,1.3146973,0.8215027,2.0310059,0.8039246c-0.0212402,0.7338867,0.2475586,1.4752808,0.8063965,2.0377808
	l0.3515625,0.3453369C28.25,54.2077637,28.9406738,54.494873,29.6760254,54.494873c0.0014648,0,0.0029297,0,0.0043945,0
	c0.736084,0,1.4296875-0.2850494,1.9519043-0.8079987l0.3669434-0.3660736l0.3684082,0.3684082
	c0.5222168,0.5222168,1.2158203,0.8100586,1.9519043,0.8100586c0.7368164,0,1.4289551-0.2878418,1.9438477-0.8063965
	l0.3618164-0.3566895c0.5578766-0.561676,0.8178864-1.3048096,0.7941742-2.0398407
	c0.0306244,0.0010071,0.0598297,0.0088348,0.0905914,0.0088348c0.736084,0,1.4274864-0.286377,1.9475098-0.8063965
	l0.3566895-0.3566895c0.5585175-0.5585175,0.8197632-1.2988129,0.7971954-2.0321045
	c0.0291138,0.0009155,0.0568542,0.0084229,0.0861053,0.0084229c0.7353516,0,1.4274902-0.286377,1.9475098-0.8071289
	l0.355957-0.355957c0.520752-0.5200195,0.8071289-1.2121582,0.8071289-1.9475098
	c0-0.0330963-0.0083771-0.0645447-0.0095215-0.0974121c0.0328674,0.0011444,0.0643158,0.0095215,0.0974121,0.0095215
	c0.7353516,0,1.4274902-0.286377,1.9438477-0.8034668l0.361084-0.355957
	c1.0715332-1.078125,1.0700684-2.8271484-0.0014648-3.8986816l-0.3685913-0.3678131l2.1146851-2.1187592
	c0.140625-0.140625,0.2189941-0.3317871,0.2189941-0.5302734c0-0.1992188-0.079834-0.3896484-0.220459-0.5302734L46.7014465,35.0737
	l1.4250183-1.4250183l1.2429199,1.2429199c0.1464844,0.1464844,0.3383789,0.2197266,0.5302734,0.2197266
	s0.3837891-0.0732422,0.5302734-0.2197266l3.9016113-3.9016113l7.4487305-7.4487305
	C62.0732422,23.248291,62.0732422,22.7736816,61.7802734,22.4807129z M3.8105469,23.0109863L15.519043,11.3024902
	l6.3881836,6.3881836L10.1987305,29.3991699L3.8105469,23.0109863z M14.1003418,33.3007813l-2.8410645-2.8410645
	l11.7084961-11.7084961l2.8410645,2.8410645L14.1003418,33.3007813z M16.9428711,32.6046143l8.1437988-8.1177979
	l1.1225739,1.1643219l-1.5210114,0.6356049c-0.1091309,0.0457764-0.2058105,0.1160889-0.2819824,0.2061768l-6.2321777,7.3271484
	L16.9428711,32.6046143z M17.6049805,36.8046875l1.0322571-1.2136688c0.0572205-0.0448608,0.111145-0.09375,0.1564636-0.147171
	l6.6386719-7.8419952l2.3184357-0.9687653l6.3354492-1.6254272l2.4554901,7.7987366
	c0.0270996,0.0864258,0,0.1582031-0.0183105,0.1933594c-0.0183105,0.0358887-0.0622559,0.098877-0.1494141,0.1259766
	l-0.4746094,0.1501465c-0.1358185,0.0424805-0.2727356,0.067749-0.4092407,0.0840454
	c-0.0354767,0.004303-0.0710907,0.0056305-0.1067047,0.008194c-0.1039581,0.0074158-0.2073212,0.0075989-0.3097229,0.0007782
	c-0.0384521-0.0024719-0.0769501-0.0048065-0.1148987-0.0091553c-0.1192474-0.0140991-0.2368469-0.0361633-0.3513794-0.0686188
	c-0.0128632-0.0036163-0.0262299-0.0056763-0.0390015-0.0095215c-0.2709961-0.0819397-0.5246887-0.213913-0.747345-0.3883667
	c-0.0109406-0.008606-0.0208282-0.0183563-0.0316315-0.0271912c-0.0927429-0.0754852-0.1787567-0.1595306-0.2590027-0.249527
	c-0.0214691-0.0242615-0.0424805-0.0489349-0.0629425-0.0741577c-0.0667419-0.0817108-0.126709-0.1697388-0.1820068-0.2615204
	c-0.0185852-0.0310822-0.039093-0.0606537-0.0562592-0.0927429c-0.0658722-0.122406-0.1238708-0.2508087-0.1672668-0.3880463
	l-0.7529297-2.3928223c-0.1245117-0.3944092-0.5441895-0.6152344-0.9404297-0.4903564l-3.6569824,1.1488037
	c-0.1179199,0.0369873-0.2241211,0.1025391-0.3105469,0.1904297l-8.170166,8.1745605L17.6049805,36.8046875z M30.5717773,52.6264648
	c-0.239502,0.239502-0.5559082,0.3684082-0.8913574,0.3684082h-0.0014648c-0.3339844,0-0.6474609-0.1289063-0.8891602-0.3720703
	l-0.3515625-0.3442383c-0.4892578-0.4929199-0.4899902-1.2912598-0.0014648-1.7797852
	c0.1444244-0.1444244,0.2161102-0.3331146,0.2181702-0.5223083l2.2836456,2.2836456L30.5717773,52.6264648z M35.5668945,52.2734375
	l-0.3618164,0.3566895c-0.4746094,0.4775391-1.2993164,0.4746094-1.7768555-0.0014648l-0.8968506-0.8968506
	c-0.0005035-0.0005035-0.0005951-0.0011444-0.0010986-0.0016479c0,0-0.0011444-0.0005951-0.0016479-0.0010986l-3.3543091-3.3543091
	c-0.4899902-0.4907227-0.4899902-1.2883301,0-1.7790527l0.355957-0.355957
	c0.2365723-0.2365723,0.5522461-0.3669434,0.8869629-0.3669434c0.3354492,0,0.6503906,0.1303711,0.8869629,0.3669434
	l4.2590332,4.2590332C36.0517578,50.9873047,36.0510254,51.7856445,35.5668945,52.2734375z M38.7536621,49.081543
	l-0.3566895,0.3566895c-0.4724121,0.4724121-1.2993164,0.473877-1.7731934,0l-4.2590332-4.2590332
	c-0.4885254-0.4885254-0.4885254-1.284668,0-1.7739258l0.355957-0.355957
	c0.2365723-0.2365723,0.5522461-0.3669434,0.8876953-0.3669434c0.3224945,0,0.6255341,0.1233673,0.859314,0.3407135
	c0.0088806,0.0091095,0.0149689,0.0201416,0.0239868,0.0291595L38.75,47.3112793
	c0.0056763,0.0056763,0.0126801,0.0094757,0.0184021,0.0151062C39.2402191,47.8168335,39.236557,48.5979156,38.7536621,49.081543z
	 M41.9404297,45.8947754l-0.355957,0.355957c-0.469162,0.469162-1.2791748,0.4727325-1.7562103,0.014328
	c-0.0053101-0.0054016-0.0086975-0.0119019-0.0140533-0.0172577l-4.2561035-4.2612305
	c-0.0091095-0.0090179-0.0203705-0.0148315-0.0295715-0.0237122c-0.2205963-0.2338715-0.3439636-0.5352631-0.3439636-0.8573914
	c0-0.3354492,0.1303711-0.6496582,0.3676758-0.8869629l0.355957-0.355957
	c0.2373047-0.2373047,0.5522461-0.3676758,0.8869629-0.3676758c0.3361816,0,0.6533203,0.1311035,0.890625,0.3669434
	l4.2546387,4.2590332c0.2373047,0.2373047,0.3676758,0.5522461,0.3676758,0.8869629S42.1777344,45.6574707,41.9404297,45.8947754z
	 M45.1425781,42.6977539l-0.3596191,0.3544922c-0.4746094,0.4746094-1.2993164,0.4746094-1.7739258,0l-4.2568359-4.2524414
	c-0.4899902-0.4929199-0.4907227-1.2912598-0.0014648-1.7797852l0.3566895-0.355957
	c0.2351074-0.2358398,0.548584-0.3662109,0.8825684-0.3662109c0.1333008,0,0.2644043,0.0212402,0.4262695,0.0725098
	c0.0410156,0.0109863,0.0864258,0.0314941,0.1516113,0.0666504c0.0878906,0.0476074,0.1721191,0.1010742,0.2021484,0.1223145
	l4.3688965,4.3630371C45.6274414,41.4116211,45.626709,42.2099609,45.1425781,42.6977539z M44.7692261,38.4346924
	l-2.9899292-2.9835205c-0.1501465-0.1245117-0.3134766-0.2336426-0.4951172-0.3317871
	c-0.1669922-0.0915527-0.3178711-0.1538086-0.4394531-0.1860352c-0.9711914-0.3134766-2.0742188-0.0549316-2.798584,0.670166
	l-0.355957,0.355957c-0.5679474,0.5675812-0.8261719,1.3246307-0.7924347,2.0722046
	c-0.7479401-0.0258636-1.5049896,0.2259979-2.0500946,0.7703247l-0.355957,0.355957
	c-0.5200195,0.5200195-0.8071289,1.2114258-0.8071289,1.9475098c0,0.0379028,0.0094299,0.0739288,0.0109406,0.111557
	c-0.7429504-0.0218353-1.493454,0.2309875-2.0353546,0.7717438l-0.355957,0.355957
	c-0.5660706,0.5664825-0.8251648,1.3195038-0.7943573,2.0626373c-0.7440033-0.0235748-1.4968414,0.2289276-2.0401154,0.7718353
	l-0.355957,0.355957c-1.0092773,1.009964-1.0579376,2.6082001-0.1711121,3.6903992
	c-0.2039795-0.0099792-0.4105682,0.0568085-0.5664368,0.212677c-0.4885254,0.4885254-1.2832031,0.4899902-1.7731934,0
	l-0.3566895-0.3566895c-0.4885254-0.4892578-0.4885254-1.2839355,0-1.7731934
	c0.1464844-0.1464844,0.2197266-0.3383789,0.2197266-0.5302734s-0.0732422-0.3837891-0.2197266-0.5302734
	c-0.2929688-0.2929688-0.7675781-0.2929688-1.0605469,0c-0.4907227,0.4907227-1.2875977,0.4907227-1.7783203,0l-0.355957-0.355957
	c-0.4907227-0.4907227-0.4907227-1.2883301,0-1.7790527c0.1464844-0.1464844,0.2197266-0.3383789,0.2197266-0.5302734
	s-0.0732422-0.3837891-0.2197266-0.5302734c-0.2929688-0.2929688-0.7675781-0.2929688-1.0605469,0
	c-0.4885254,0.4892578-1.284668,0.4885254-1.7775879-0.0036621l-0.3508301-0.3457031
	c-0.4892578-0.4929199-0.4899902-1.2912598-0.0029297-1.7790527l0.8889313-0.8889771
	c0.0046234-0.0043945,0.0111237-0.0059509,0.0156097-0.010437l7.5087891-7.5142822l1.0678711-1.0697021l2.7619629-0.8679199
	l0.5288086,1.6787109c0.0716858,0.2269592,0.168045,0.4394989,0.2769012,0.6433411
	c0.0300293,0.0559845,0.0650482,0.1071167,0.0976868,0.161087c0.0900421,0.1499634,0.1880951,0.2924194,0.2967224,0.4268188
	c0.0360718,0.0442657,0.0721436,0.0873413,0.1100464,0.129776c0.1307831,0.1475372,0.271637,0.2834015,0.423111,0.4079132
	c0.0200958,0.0164337,0.0384064,0.0346527,0.0588684,0.0506744c0.3671265,0.2891235,0.7853394,0.5087585,1.2398987,0.6448059
	c0.0222015,0.0067291,0.0451355,0.0101166,0.0674286,0.0164337c0.1887817,0.0527344,0.3822327,0.090683,0.5807648,0.1136627
	c0.0650024,0.0077362,0.1299133,0.0112152,0.1955566,0.015564c0.0809784,0.0051727,0.1597595,0.0193176,0.2418823,0.0193176
	c0.0892639,0,0.1775665-0.0140533,0.2664642-0.0204163c0.0615234-0.004303,0.1222687-0.0067291,0.1839294-0.0140991
	c0.2287445-0.027832,0.4559784-0.0695343,0.6782684-0.1390686l0.4753418-0.1501465
	c0.4460449-0.1398926,0.8115234-0.4460449,1.0283203-0.862793c0.2175293-0.4160156,0.2600098-0.890625,0.1201172-1.3374023
	l-1.7814789-5.6585541L46.3540039,36.847168L44.7692261,38.4346924z M45.6442871,34.0097656l-8.1643066-8.1595459
	l1.4223633-1.4223633l5.6521912,5.6488953l2.5113831,2.5113831L45.6442871,34.0097656z M49.8996582,33.3007813l-1.2377472-1.2377472
	c-0.0018768-0.0019226-0.0025177-0.004715-0.0044403-0.0066376L44.703949,28.105072l-6.5127869-6.5127869l2.8410645-2.8410645
	l11.7084961,11.7084961L49.8996582,33.3007813z M53.8012695,29.3991699L42.0927734,17.6906738l6.3881836-6.3881836
	l11.7084961,11.7084961L53.8012695,29.3991699z" fill="#ffffff" class="color000 svgShape"></path></svg></g></svg>