<svg xmlns="http://www.w3.org/2000/svg" enable-background="new 0 0 64 64" viewBox="0 0 64 64" id="Mountain"><path fill-rule="evenodd" d="M61.638,56.853L48.327,37.837C48.757,36.296,49,34.677,49,33c0-9.934-8.066-18-18-18c-9.934,0-18,8.066-18,18
			c0,2.208,0.419,4.312,1.147,6.267L2.339,56.887C1.927,57.5,1.888,58.29,2.235,58.942C2.583,59.593,3.262,60,4,60h56
			c0.746,0,1.43-0.415,1.774-1.076C62.118,58.262,62.066,57.464,61.638,56.853z M17.995,40.712c0.38-0.544,1.006-0.865,1.671-0.854
			c0.678,0.01,1.304,0.364,1.664,0.939l6.934,11.085L30.581,56h-3.022L17.995,40.712z M34.888,30.343
			c-0.292,0.262-0.56,0.553-0.8,0.873l-7.651,10.202l-1.716-2.742c-1.079-1.725-2.958-2.786-4.992-2.818
			c-0.724-0.011-1.432,0.108-2.095,0.343c-0.079,0.028-0.149,0.075-0.226,0.106C17.15,35.245,17,34.141,17,33
			c0-7.727,6.273-14,14-14s14,6.273,14,14c0,0.027-0.003,0.052-0.003,0.079l-1.193-1.704c-1.103-1.576-2.894-2.527-4.817-2.559
			c-0.724-0.011-1.434,0.108-2.099,0.343C36.154,29.419,35.473,29.82,34.888,30.343z M53.041,56L37.332,33.559
			c0.387-0.478,0.972-0.753,1.589-0.743c0.641,0.01,1.238,0.327,1.606,0.853L56.159,56C56.159,56,54.919,56,53.041,56z" clip-rule="evenodd" fill="#009999" class="color000000 svgShape"></path><path fill-rule="evenodd" d="M51 33c0 1.104.896 2 2 2h5c1.104 0 2-.896 2-2s-.896-2-2-2h-5C51.896 31 51 31.896 51 33zM51.053 23.732l4.33-2.5c.956-.552 1.284-1.776.732-2.732s-1.776-1.284-2.732-.732l-4.33 2.5c-.956.552-1.284 1.776-.732 2.732C48.872 23.956 50.097 24.284 51.053 23.732zM41 15.679c.956.552 2.18.224 2.732-.732l2.5-4.33c.552-.956.224-2.18-.732-2.732s-2.18-.224-2.732.732l-2.5 4.33C39.716 13.903 40.044 15.128 41 15.679zM31 13c1.104 0 2-.896 2-2V6c0-1.104-.896-2-2-2s-2 .896-2 2v5C29 12.104 29.896 13 31 13zM18.268 14.947c.552.956 1.776 1.284 2.732.732.956-.551 1.284-1.776.732-2.732l-2.5-4.33C18.68 7.661 17.456 7.333 16.5 7.885s-1.284 1.776-.732 2.732L18.268 14.947zM6.617 21.232l4.33 2.5c.956.552 2.181.224 2.732-.732.552-.956.224-2.18-.732-2.732l-4.33-2.5c-.956-.552-2.18-.224-2.732.732S5.661 20.68 6.617 21.232zM4 35h5c1.104 0 2-.896 2-2s-.896-2-2-2H4c-1.104 0-2 .896-2 2S2.896 35 4 35z" clip-rule="evenodd" fill="#009999" class="color000000 svgShape"></path></svg>