<svg xmlns="http://www.w3.org/2000/svg" enable-background="new 0 0 512 512" viewBox="0 0 512 512" id="Astronaut"><path fill="#009999" d="M451.046,344.357v-61.716c0-26.628-21.586-48.214-48.213-48.214H109.168
			c-26.628,0-48.214,21.586-48.214,48.214v61.716H451.046z" class="colorb0bfc6 svgShape"></path><path fill="#d1e8e8" d="M508.3,465.374v35.732c0,6.016-4.877,10.894-10.894,10.894H14.594
			C8.577,512,3.7,507.122,3.7,501.106v-35.732c0-90.852,73.822-163.951,163.951-163.951h176.643
			C434.501,301.423,508.3,374.532,508.3,465.374z" class="colord1dfe8 svgShape"></path><path fill="#6ae2e2" d="M405.483,313.238c-83.82,84.945-219.131,84.351-301.29,0.949
			c19.192-7.921,39.837-12.78,61.928-12.78H342.78C364.965,301.119,386.291,305.317,405.483,313.238z" class="colorcbe26a svgShape"></path><path fill="#009999" d="M425.709,131.422c-3.011,0-5.447-2.436-5.447-5.447V38.724c0-3.011,2.436-5.447,5.447-5.447
			s5.447,2.436,5.447,5.447v87.251C431.156,128.986,428.72,131.422,425.709,131.422z" class="colorb0bfc6 svgShape"></path><path fill="#4ed8d8" d="M445.049,19.385c0,10.691-8.63,19.321-19.321,19.321c-10.691,0-19.385-8.63-19.385-19.321
			C406.342,8.694,415.037,0,425.728,0C436.419,0,445.049,8.694,445.049,19.385z" class="colorbad84e svgShape"></path><path fill="#009999" d="M104.36 122.274H75.454c-11.302 0-20.464 9.162-20.464 20.464v37.259c0 11.302 9.162 20.463 20.464 20.463h28.906V122.274zM425.731 122.274h-17.07v78.186h17.07c11.302 0 20.463-9.162 20.463-20.463v-37.259C446.195 131.436 437.033 122.274 425.731 122.274z" class="colorb0bfc6 svgShape"></path><circle cx="256" cy="165.069" r="160.27" fill="#d1e8e8" transform="rotate(-45.001 256 165.072)" class="colord1dfe8 svgShape"></circle><ellipse cx="256" cy="165.069" fill="#8dfcfc" rx="115.094" ry="92.254" class="color8de2fc svgShape"></ellipse><polygon fill="#e6e8e8" points="261.447 376.808 261.447 376.863 261.447 512 250.553 512 250.553 376.863 250.553 376.808" class="colore8e7e6 svgShape"></polygon><path fill="#6df7f7" d="M417.236,416.807L417.236,416.807c0,7.363-5.969,13.332-13.332,13.332h-48.818
			c-7.363,0-13.332-5.969-13.332-13.332v0c0-7.363,5.969-13.332,13.332-13.332h48.818
			C411.267,403.476,417.236,409.444,417.236,416.807z" class="colorf7cf6d svgShape"></path></svg>