<svg xmlns="http://www.w3.org/2000/svg" viewBox="0 0 64 64" id="signal"><path d="M46,12a1,1,0,0,1-1-1,2,2,0,0,0-2-2,1,1,0,0,1,0-2,4,4,0,0,1,4,4A1,1,0,0,1,46,12Z" fill="#009999" class="color000000 svgShape"></path><path d="M50 12a1 1 0 0 1-1-1 6 6 0 0 0-6-6 1 1 0 0 1 0-2 8 8 0 0 1 8 8A1 1 0 0 1 50 12zM34.12 28.88a8.94 8.94 0 0 1-6.36-2.64h0a9 9 0 0 1 0-12.73l.88-.87a1 1 0 0 1 .7-.3h0a1 1 0 0 1 .71.3L41.36 24a1 1 0 0 1 .3.71 1 1 0 0 1-.3.7l-.87.88A9 9 0 0 1 34.12 28.88zM29.34 14.76l-.17.17a7 7 0 0 0 0 9.9h0a7 7 0 0 0 9.9 0l.17-.17z" fill="#009999" class="color000000 svgShape"></path><path d="M30.12 24a1 1 0 0 1-1-1A9.12 9.12 0 0 1 30 18.91a1 1 0 0 1 1.8.88 7.07 7.07 0 0 0-.72 3.2 1 1 0 0 1-1 1zM35 20a1 1 0 0 1-.71-.29 1 1 0 0 1 0-1.42l4-4a1 1 0 0 1 1.42 1.42l-4 4A1 1 0 0 1 35 20z" fill="#009999" class="color000000 svgShape"></path><path d="M41 16a3 3 0 1 1 3-3A3 3 0 0 1 41 16zm0-4a1 1 0 1 0 1 1A1 1 0 0 0 41 12zM60 61H4a1 1 0 0 1 0-2H60a1 1 0 0 1 0 2z" fill="#009999" class="color000000 svgShape"></path><path d="M48 61a1 1 0 0 1-.92-.61L33.55 28.25a1 1 0 1 1 1.84-.78L48.92 59.61a1 1 0 0 1-.53 1.31A1.09 1.09 0 0 1 48 61zM16 61a1.09 1.09 0 0 1-.39-.08 1 1 0 0 1-.53-1.31l14-33.26a1 1 0 0 1 1.84.78l-14 33.26A1 1 0 0 1 16 61z" fill="#009999" class="color000000 svgShape"></path><path d="M46.22,56.77a.9.9,0,0,1-.28,0L20.66,49.24a1,1,0,0,1,.56-1.92l.55.16L46.5,54.81a1,1,0,0,1-.28,2Z" fill="#009999" class="color000000 svgShape"></path><path d="M20.69,49.87A1,1,0,0,1,20.22,48l.8-.43L38.62,38a1,1,0,1,1,1,1.76l-18.42,10A1,1,0,0,1,20.69,49.87Z" fill="#009999" class="color000000 svgShape"></path><path d="M38.81,39.17a.9.9,0,0,1-.28,0l-12.1-3.59A1,1,0,0,1,27,33.62l12.1,3.59a1,1,0,0,1-.28,2Z" fill="#009999" class="color000000 svgShape"></path></svg>