<svg xmlns="http://www.w3.org/2000/svg" viewBox="0 0 64 64" id="Team"><path fill="#009999" d="M41.84 31.38c.51 0 .94-.4.97-.91.01-.2.02-.4.02-.61 0-5.49-4.86-9.96-10.83-9.96s-10.83 4.47-10.83 9.96c0 .21.01.41.02.61.03.51.46.91.97.91h8.88v5.85l-5.86 4.56a.97.97 0 0 0-.17 1.36c.33.42.94.5 1.36.17L32 38.94l5.63 4.38c.18.14.39.2.59.2a1 1 0 0 0 .77-.37.97.97 0 0 0-.17-1.36l-5.85-4.55v-5.86h8.87zM32 21.85c4.74 0 8.63 3.37 8.88 7.6H23.12c.25-4.23 4.14-7.6 8.88-7.6zm0-3.68a5.33 5.33 0 0 0 5.32-5.32A5.33 5.33 0 0 0 32 7.53a5.33 5.33 0 0 0-5.32 5.32c0 2.94 2.39 5.32 5.32 5.32zm0-8.7c1.86 0 3.38 1.52 3.38 3.38 0 1.86-1.52 3.38-3.38 3.38-1.86 0-3.38-1.52-3.38-3.38 0-1.86 1.52-3.38 3.38-3.38zM10.83 44.99C4.86 44.99 0 49.46 0 54.95c0 .21.01.41.02.61.03.51.46.91.97.91h19.68c.51 0 .94-.4.97-.91.01-.2.02-.4.02-.61 0-5.49-4.86-9.96-10.83-9.96zm-8.88 9.54c.25-4.23 4.13-7.6 8.88-7.6s8.63 3.37 8.88 7.6H1.95zm8.88-11.27a5.33 5.33 0 0 0 5.32-5.32 5.33 5.33 0 0 0-5.32-5.32 5.33 5.33 0 0 0-5.32 5.32 5.33 5.33 0 0 0 5.32 5.32zm0-8.7c1.86 0 3.38 1.52 3.38 3.38 0 1.86-1.52 3.38-3.38 3.38-1.86 0-3.38-1.52-3.38-3.38 0-1.87 1.52-3.38 3.38-3.38zm42.34 10.43c-5.97 0-10.83 4.47-10.83 9.96 0 .21.01.41.02.61.03.51.46.91.97.91h19.68c.51 0 .94-.4.97-.91.01-.2.02-.4.02-.61 0-5.49-4.86-9.96-10.83-9.96zm-8.88 9.54c.25-4.23 4.13-7.6 8.88-7.6 4.74 0 8.63 3.37 8.88 7.6H44.29zm8.88-11.27a5.33 5.33 0 0 0 5.32-5.32 5.33 5.33 0 0 0-5.32-5.32 5.33 5.33 0 0 0-5.32 5.32 5.33 5.33 0 0 0 5.32 5.32zm0-8.7c1.86 0 3.38 1.52 3.38 3.38 0 1.86-1.52 3.38-3.38 3.38-1.86 0-3.38-1.52-3.38-3.38 0-1.87 1.52-3.38 3.38-3.38z" class="color010101 svgShape"></path></svg>