<svg xmlns="http://www.w3.org/2000/svg" data-name="Layer 1" viewBox="0 0 512 512" id="Television"><g data-name="&amp;lt;Group&amp;gt;" fill="#808080" class="color000000 svgShape"><path d="M438.954,131H147.635l44.548-52.589a8.027,8.027,0,0,0-12.2-10.436l-46.152,54.357-67.575-76.2a8,8,0,0,0-11.293-.68,8.128,8.128,0,0,0-.677,11.4L119.954,131H69.66A47.579,47.579,0,0,0,22,178.783V420.567C22,447.035,43.193,469,69.66,469H442.34c26.467,0,47.66-21.965,47.66-48.433v-238.4A50.969,50.969,0,0,0,438.954,131ZM474,420.567C474,438.212,459.985,453,442.34,453H69.66C52.015,453,38,438.212,38,420.567V178.783A31.562,31.562,0,0,1,69.66,147H438.954A34.951,34.951,0,0,1,474,182.167Z" data-name="&amp;lt;Compound Path&amp;gt;" fill="#808080" class="color000000 svgShape"></path><path d="M417.922,208.525a35.59,35.59,0,1,0,35.589,35.59A35.63,35.63,0,0,0,417.922,208.525Zm0,55.179a19.59,19.59,0,1,1,19.589-19.589A19.612,19.612,0,0,1,417.922,263.7Z" data-name="&amp;lt;Compound Path&amp;gt;" fill="#808080" class="color000000 svgShape"></path><path d="M439.862 315H395.983a8 8 0 1 0 0 16h43.879a8 8 0 1 0 0-16zM439.862 348H395.983a8 8 0 1 0 0 16h43.879a8 8 0 1 0 0-16zM439.862 380H395.983a8 8 0 1 0 0 16h43.879a8 8 0 1 0 0-16z" data-name="&amp;lt;Path&amp;gt;" fill="#808080" class="color000000 svgShape"></path><path d="M364,177a8,8,0,0,0-8-8H65a8,8,0,0,0-8,8V424a8,8,0,0,0,8,8H356a8,8,0,0,0,8-8ZM348,416H73V185H348Z" data-name="&amp;lt;Compound Path&amp;gt;" fill="#808080" class="color000000 svgShape"></path><path d="M120.467,317.216a245.2,245.2,0,0,0,24.033,8.7,75.706,75.706,0,0,0,133.364,17.26q2.508-.169,4.921-.39c26.755-2.477,41.27-9.764,43.144-21.659,1.91-12.125-10.1-23.694-35.7-34.422a75.72,75.72,0,0,0-139.327-25.938c-29.011-.024-61.923,4.1-64.834,22.577C84.2,295.237,95.77,306.633,120.467,317.216Zm44.5,14.32c11.195,2.728,23.07,5.107,35.312,7.035a407.289,407.289,0,0,0,56.12,5.1,59.649,59.649,0,0,1-91.432-12.131ZM310.1,318.616c-.433.613-4.334,5.2-23.376,7.642a75.209,75.209,0,0,0,4.538-21.553C305.868,311.776,309.807,317.161,310.1,318.616Zm-94.424-78.363a59.706,59.706,0,0,1,52.968,87.338c-19.236.566-42.183-1.091-65.88-4.824a404.891,404.891,0,0,1-45.387-9.74,59.7,59.7,0,0,1,58.3-72.774Zm-72.121,36.616a75.791,75.791,0,0,0-3.235,30.851c-4-1.389-7.809-2.825-11.388-4.3-23.966-9.886-26.79-16.818-27.032-17.6C103.3,283.036,115.478,277.673,143.557,276.869Z" data-name="&amp;lt;Compound Path&amp;gt;" fill="#808080" class="color000000 svgShape"></path></g></svg>