<svg xmlns="http://www.w3.org/2000/svg" enable-background="new 0 0 64 64" viewBox="0 0 64 64" id="Footprint"><path fill="#009999" d="M26.331 13.226c2.027 0 3.617-2.182 3.617-4.975 0-2.783-1.59-4.975-3.617-4.975-2.017 0-3.607 2.191-3.607 4.975C22.723 11.045 24.314 13.226 26.331 13.226zM18.496 13.226c1.852 0 3.297-1.93 3.297-4.402 0-2.463-1.445-4.393-3.297-4.393-1.852 0-3.307 1.93-3.307 4.393C15.189 11.297 16.643 13.226 18.496 13.226zM10.36 14.516c.572.64 1.299.989 2.036.989.097 0 .204-.01.301-.02.834-.107 1.571-.659 2.017-1.522.398-.756.543-1.697.427-2.647-.126-.95-.504-1.823-1.076-2.453-.64-.727-1.493-1.076-2.327-.97C10.893 7.99 10.156 8.552 9.71 9.406c-.388.756-.543 1.697-.417 2.647C9.409 13.003 9.788 13.886 10.36 14.516zM7.47 18.899c.272 0 .533-.048.795-.145 1.067-.388 1.678-1.474 1.678-2.764 0-.485-.087-.989-.271-1.503-.679-1.852-2.356-2.89-3.821-2.357-.747.272-1.309.931-1.551 1.794-.204.766-.155 1.639.145 2.473C5.007 17.929 6.238 18.899 7.47 18.899zM5.308 21.711c.33-.688.398-1.493.194-2.269-.436-1.668-1.988-2.715-3.481-2.327-1.484.378-2.337 2.056-1.91 3.724.368 1.435 1.581 2.405 2.851 2.405.213 0 .427-.019.63-.078C4.328 22.972 4.958 22.448 5.308 21.711z" class="colorfecc95 svgShape"></path><path fill="#009999" d="M26.33 43.85c-3.375-4.403-2.075-7.932-1.998-8.146.204-.64 1.328-3.181 3.074-6.943.64-1.367.931-2.793.853-4.141-.146-2.696-1.144-4.645-2.967-5.799-4.15-2.618-11.016.146-11.268.252-.281.097-6.943 2.541-8.863 7.554-.863 2.279-.63 4.693.688 7.127.039.068 3.229 6.895 4.325 9.678.844 2.376 5.178 14.235 7.913 16.02.359.291 1.726 1.27 3.743 1.27.882 0 1.891-.184 3.006-.698 1.105-.514 2.318-1.358 3.588-2.667.398-.417.747-.873 1.038-1.377.815-1.426 1.047-3.21.65-5.013C29.239 46.904 26.756 44.277 26.33 43.85zM50.137 19.083c-.291-.116-7.156-2.88-11.307-.262-1.823 1.154-2.822 3.103-2.977 5.799-.068 1.348.223 2.773.863 4.141 1.745 3.762 2.87 6.303 3.093 7.011.058.146 1.358 3.675-2.017 8.078-.427.427-2.909 3.055-3.782 7.118-.398 1.804-.165 3.588.65 5.013.291.504.64.97 1.038 1.377 2.55 2.618 4.829 3.365 6.594 3.365 2.017 0 3.384-.97 3.743-1.27 2.735-1.784 7.069-13.644 7.903-15.991 1.105-2.812 4.296-9.639 4.306-9.658 1.348-2.482 1.581-4.897.718-7.176C57.041 21.614 50.379 19.171 50.137 19.083z" class="colorf1b974 svgShape"></path><path fill="#009999" d="M37.667 13.226c2.017 0 3.607-2.182 3.607-4.975 0-2.783-1.59-4.975-3.607-4.975-2.027 0-3.617 2.191-3.617 4.975C34.05 11.045 35.64 13.226 37.667 13.226zM45.502 13.226c1.852 0 3.307-1.93 3.307-4.402 0-2.463-1.454-4.393-3.307-4.393-1.852 0-3.297 1.93-3.297 4.393C42.205 11.297 43.65 13.226 45.502 13.226zM51.301 15.486c.097.01.204.02.301.02.737 0 1.464-.349 2.036-.989.572-.63.95-1.513 1.067-2.463.126-.95-.029-1.891-.417-2.647-.446-.853-1.183-1.416-2.017-1.513-.107-.01-.213-.019-.31-.019-1.532 0-2.851 1.445-3.103 3.442C48.595 13.449 49.662 15.272 51.301 15.486zM54.181 16.96c.233.873.805 1.523 1.552 1.794.262.097.524.145.795.145 1.232 0 2.463-.979 3.026-2.502.679-1.862.058-3.733-1.406-4.267-.262-.097-.524-.136-.795-.136-1.231 0-2.463.97-3.025 2.492C54.026 15.321 53.967 16.194 54.181 16.96zM63.694 18.569c-.349-.737-.979-1.261-1.716-1.455-1.493-.388-3.045.659-3.481 2.327-.204.776-.136 1.581.194 2.269.349.737.979 1.261 1.716 1.455.204.058.417.078.621.078.553 0 1.105-.175 1.581-.514.621-.436 1.076-1.115 1.28-1.891C64.091 20.063 64.014 19.248 63.694 18.569z" class="colorfecc95 svgShape"></path></svg>