<svg xmlns="http://www.w3.org/2000/svg" data-name="Layer 17" viewBox="0 0 20 19" id="Gallery"><path d="M280.26,134.42H268.74a4.24,4.24,0,0,0-4.24,4.24v7l2.89-1.74a3.51,3.51,0,0,1,4.29.53l.91.92,3.66-3.05a3.51,3.51,0,0,1,4.5,0l3.75,3.13v-6.76A4.24,4.24,0,0,0,280.26,134.42Zm-9.76,7.5a2.25,2.25,0,1,1,2.25-2.25A2.25,2.25,0,0,1,270.5,141.92Z" transform="translate(-264.5 -134.42)" fill="#009999" class="color000000 svgShape"></path><path d="M284.5,149v.22a4.24,4.24,0,0,1-4.24,4.24H268.74a4.24,4.24,0,0,1-4.24-4.24V149a1.52,1.52,0,0,0,.79-.22l3.68-2.21a.44.44,0,0,1,.53.07l1.91,1.91a1.55,1.55,0,0,0,2.08.09l4.73-3.95a.45.45,0,0,1,.56,0l4.73,3.95A1.55,1.55,0,0,0,284.5,149Z" transform="translate(-264.5 -134.42)" fill="#009999" class="color000000 svgShape"></path></svg>