<svg xmlns="http://www.w3.org/2000/svg" viewBox="0 0 64 64" id="GameController"><g data-name="7" fill="#009999" class="color000000 svgShape"><path d="M48.92 49.61A12.16 12.16 0 0 1 40.38 46H23.62a12.16 12.16 0 0 1-8.54 3.62C7.87 49.61 2 42.93 2 34.72s5.87-14.9 13.08-14.9a11.93 11.93 0 0 1 7.15 2.42h19.54a11.93 11.93 0 0 1 7.15-2.42c7.21 0 13.08 6.68 13.08 14.9s-5.87 14.89-13.08 14.89ZM23.2 44h17.6a1 1 0 0 1 .72.31 10.23 10.23 0 0 0 7.4 3.31C55 47.61 60 41.83 60 34.72s-5-12.9-11.08-12.9A9.9 9.9 0 0 0 42.73 24a1.08 1.08 0 0 1-.62.21H21.89a1.08 1.08 0 0 1-.62-.21 9.9 9.9 0 0 0-6.19-2.21C9 21.82 4 27.61 4 34.72s5 12.89 11.08 12.89a10.23 10.23 0 0 0 7.4-3.31 1 1 0 0 1 .72-.3Z" fill="#009999" class="color000000 svgShape"></path><path d="M16.39 42.36h-2.62a1.5 1.5 0 0 1-1.5-1.5v-3.33H8.94A1.5 1.5 0 0 1 7.44 36v-2.59a1.5 1.5 0 0 1 1.5-1.5h3.33v-3.33a1.51 1.51 0 0 1 1.5-1.51h2.62a1.52 1.52 0 0 1 1.51 1.51v3.33h3.33a1.5 1.5 0 0 1 1.5 1.5V36a1.5 1.5 0 0 1-1.5 1.5H17.9v3.33a1.51 1.51 0 0 1-1.51 1.53zm-2.12-2h1.63v-3.83a1 1 0 0 1 1-1h3.83v-1.62H16.9a1 1 0 0 1-1-1v-3.84h-1.63v3.84a1 1 0 0 1-1 1H9.44v1.62h3.83a1 1 0 0 1 1 1zm41.29-4.04a2.21 2.21 0 1 1 2.21-2.21 2.21 2.21 0 0 1-2.21 2.21zm0-2.41a.21.21 0 0 0-.21.2c0 .23.42.23.42 0a.2.2 0 0 0-.21-.2zm-5.43 7.25a2.21 2.21 0 1 1 2.2-2.16 2.21 2.21 0 0 1-2.2 2.16zm0-2.42a.21.21 0 0 0-.21.21c0 .23.41.23.41 0a.2.2 0 0 0-.2-.21zm-5.44-2.42a2.21 2.21 0 1 1 2.21-2.21 2.21 2.21 0 0 1-2.21 2.21zm0-2.41a.2.2 0 0 0-.21.2c0 .23.42.23.42 0a.21.21 0 0 0-.21-.2zm5.44-2.42a2.21 2.21 0 1 1 2.2-2.21 2.21 2.21 0 0 1-2.2 2.21zm0-2.42a.21.21 0 0 0-.21.21c0 .23.41.23.41 0a.21.21 0 0 0-.2-.21zM29.58 40H26a1 1 0 1 1 0-2h3.62a1 1 0 0 1 0 2zM38 40h-3.58a1 1 0 0 1 0-2H38a1 1 0 1 1 0 2zm-3.58-15.76a1 1 0 0 1-1-1v-2h-2.84v2a1 1 0 0 1-2 0v-3a1 1 0 0 1 1-1h4.84a1 1 0 0 1 1 1v3a1 1 0 0 1-1 1z" fill="#009999" class="color000000 svgShape"></path><path d="M32 20.61a1 1 0 0 1-1-1v-4.22a1 1 0 0 1 2 0v4.22a1 1 0 0 1-1 1Z" fill="#009999" class="color000000 svgShape"></path></g></svg>