<svg xmlns="http://www.w3.org/2000/svg" data-name="Layer 1" viewBox="0 0 32 32" id="Satellite"><path fill="#009999" d="M31.86,26.51l-2.28-2.28h0L27.3,22h0L22.75,17.4a.51.51,0,0,0-.69,0l-2,2-.59-.59,3.32-3.32,1.12-1.11a1,1,0,0,0,0-1.37L21.8,10.88l.7-.7a7.38,7.38,0,0,0,4.84,1.94,5.25,5.25,0,0,0,3.75-1.47.52.52,0,0,0,.14-.35.48.48,0,0,0-.14-.34L26.9,5.78l1.15-1.15a1.64,1.64,0,0,0,.77.2,1.65,1.65,0,1,0,0-3.3h0a1.64,1.64,0,0,0-1.65,1.65,1.61,1.61,0,0,0,.2.77L26.22,5.09,22,.91a.51.51,0,0,0-.69,0c-2.15,2.15-1.91,5.91.46,8.59l-.69.69L19,8.07a1,1,0,0,0-1.37,0L16.51,9.18,13.19,12.5l-.58-.58,2-2a.48.48,0,0,0,0-.68L12.32,7h0L10,4.69h0L7.76,2.42h0L5.49.14a.51.51,0,0,0-.69,0L1.7,3.25h0L.14,4.8a.48.48,0,0,0,0,.68L2.42,7.76h0L7,12.32H7l2.28,2.27a.48.48,0,0,0,.34.15.49.49,0,0,0,.35-.15l2-2,.59.58L8.07,17.62a1,1,0,0,0-.28.69,1,1,0,0,0,.28.68l.41.41L8,19.92a1,1,0,0,0-.28.68,1,1,0,0,0,.28.69L10.71,24a1,1,0,0,0,.69.28h0a1,1,0,0,0,.68-.28l.52-.52.4.4a1,1,0,0,0,.69.29.92.92,0,0,0,.68-.29l4.44-4.43.58.58-.43.44h0L17.4,22.06a.49.49,0,0,0,0,.69L19.68,25h0L22,27.3h0l2.27,2.28h0l2.28,2.28a.52.52,0,0,0,.35.14.51.51,0,0,0,.34-.14l1.55-1.56h0l3.11-3.1a.52.52,0,0,0,.14-.35A.48.48,0,0,0,31.86,26.51ZM28.34,2.7a.67.67,0,0,1,.48-.2h0a.71.71,0,0,1,.48.19.68.68,0,0,1,0,1,.68.68,0,1,1-1-1ZM21.71,2,30,10.28c-1.92,1.5-5.05,1.05-7.21-1.11h0C20.66,7,20.22,3.88,21.71,2Zm6.84,22.62-.87.86-1.59-1.59L27,23Zm-3.14,0L27,26.13l-.87.87-1.59-1.6Zm-1.56.18-1.59-1.59.87-.87,1.59,1.59Zm2.42-2.42-.86.87-1.59-1.6.86-.86Zm-3.86-3.87L24,20l-.87.87L21.54,19.3Zm-2,2h0l.42-.43,1.59,1.59-.86.87L20,20.85ZM18.31,8.76l4.93,4.93-.77.76L17.54,9.52Zm-7-1.45-.87.87L8.83,6.59l.87-.87Zm-3.14,0L9.74,8.87l-.87.87L7.28,8.14Zm-1.56.18L5,5.87,5.87,5,7.46,6.59ZM9,5l-.86.86L6.55,4.31l.87-.86ZM5.14,1.17l1.6,1.59-.87.87L4.28,2ZM3.59,2.72,5.18,4.31l-.86.87L2.72,3.59ZM1.17,5.14,2,4.27l1.59,1.6-.87.86ZM3.45,7.42l.87-.87L5.91,8.14,5,9ZM5.72,9.7l.87-.87,1.59,1.59-.86.87Zm3.87,3.87L8,12l.87-.86,1.59,1.59Zm2-2h0l-.43.43L9.56,10.42l.86-.87L12,11.14Zm-.48-2.7L12,8l1.59,1.59-.87.87Zm.29,14.48L8.64,20.6l.52-.52,2.76,2.76Zm2.29-.11L8.76,18.31l4.77-4.78h0l3.32-3.32L20.65,14l1.14,1.14Zm4.74-.84.87-.86,1.59,1.59L20,24Zm2.28,2.28.87-.87,1.59,1.59-.87.87ZM23,27l.86-.87,1.6,1.59-.87.87Zm3.87,3.87-1.6-1.6.87-.86L27.72,30Zm1.55-1.56-1.59-1.59.86-.87,1.6,1.6ZM30,27.72l-1.59-1.59.87-.87,1.59,1.59Z" class="color231f20 svgShape"></path></svg>