<svg xmlns="http://www.w3.org/2000/svg" enable-background="new 0 0 32 32" viewBox="0 0 32 32" id="Joystick"><path fill="none" stroke="#009999" stroke-linecap="round" stroke-linejoin="round" stroke-miterlimit="10" stroke-width="2" d="M30.9,25l-3-14.9c-0.3-1.3-1.1-2.5-2.2-3.2c-1.9-1.1-4.3-0.8-5.8,0.7L18.6,9h-2h-1.1h-2l-1.4-1.4
	c-1.5-1.5-3.9-1.8-5.8-0.7c-1.2,0.7-2,1.8-2.2,3.2L1.1,25c-0.3,1.6,0.9,3,2.5,3c0.6,0,1.1-0.2,1.5-0.7L8.8,23c1.7-1.9,4.1-3,6.6-3
	h1.1c2.5,0,5,1.1,6.6,3l3.8,4.3c0.4,0.4,0.9,0.7,1.5,0.7C30.1,28,31.3,26.5,30.9,25z" class="colorStroke000000 svgStroke"></path><circle cx="23" cy="14" r="2" fill="none" stroke="#009999" stroke-linecap="round" stroke-linejoin="round" stroke-miterlimit="10" stroke-width="2" class="colorStroke000000 svgStroke"></circle><line x1="9" x2="9" y1="16" y2="12" fill="none" stroke="#009999" stroke-linecap="round" stroke-linejoin="round" stroke-miterlimit="10" stroke-width="2" class="colorStroke000000 svgStroke"></line><line x1="11" x2="7" y1="14" y2="14" fill="none" stroke="#009999" stroke-linecap="round" stroke-linejoin="round" stroke-miterlimit="10" stroke-width="2" class="colorStroke000000 svgStroke"></line><line x1="17" x2="15" y1="13" y2="13" fill="none" stroke="#009999" stroke-linecap="round" stroke-linejoin="round" stroke-miterlimit="10" stroke-width="2" class="colorStroke000000 svgStroke"></line><line x1="17" x2="15" y1="16" y2="16" fill="none" stroke="#009999" stroke-linecap="round" stroke-linejoin="round" stroke-miterlimit="10" stroke-width="2" class="colorStroke000000 svgStroke"></line></svg>