<svg xmlns="http://www.w3.org/2000/svg" viewBox="0 0 36 36" id="Mars"><path fill="#ffffff" style="isolation:auto;mix-blend-mode:normal" d="M21.5 1040.363a1 1 0 0 1-1 1 1 1 0 0 1-1-1 1 1 0 0 1 1-1 1 1 0 0 1 1 1zm3-13a1 1 0 1 0 0 2 1 1 0 0 0 0-2zm8.14 0H28.5c-.554 0-1 .446-1 1s.446 1 1 1h2c.554 0 1 .446 1 1s-.446 1-1 1h-4c-.554 0-1 .446-1 1s.446 1 1 1h7.875zm-28.515 14H16.5c.554 0 1-.446 1-1s-.446-1-1-1h-1c-.554 0-1-.446-1-1s.446-1 1-1h5c.554 0 1-.446 1-1s-.446-1-1-1H2.537l.258 2h1.776c.554 0 1 .446 1 1s-.446 1-1 1H3.324zm2.447 4H11.5c.554 0 1-.446 1-1s-.446-1-1-1H5.291zm5.17 4H13.5c.554 0 1-.446 1-1s-.446-1-1-1H8.632zm19.985-6H23.5c-.554 0-1 .446-1 1s.446 1 1 1h2c.554 0 1 .446 1 1s-.446 1-1 1H24c-.554 0-1 .446-1 1s.446 1 1 1h1.18zm-6.227-5a1 1 0 0 1-1 1 1 1 0 0 1-1-1 1 1 0 0 1 1-1 1 1 0 0 1 1 1zm-20.226-12.5a16 16 0 0 0-2.483 6h6.71c.553 0 1-.446 1-1s-.447-1-1-1h-1c-.555 0-1-.446-1-1s.445-1 1-1h5c.553 0 1-.446 1-1s-.447-1-1-1z" color="#000" overflow="visible" transform="translate(0 -1016.362)" class="colorffffff svgShape"></path><path fill="#ffffff" fill-rule="evenodd" d="M22.475 3H20.501c-.555 0-1 .447-1 1 0 .555.445 1 1 1h1c.553 0 1 .447 1 1 0 .555-.447 1-1 1h-2c-.555 0-1 .447-1 1 0 .555.445 1 1 1h11.843z" class="colorffffff svgShape"></path><path fill="#ffffff" style="isolation:auto;mix-blend-mode:normal" d="M34.5 1034.863a16 16 0 0 1-16 16 16 16 0 0 1-16-16 16 16 0 0 1 16-16 16 16 0 0 1 16 16z" color="#000" overflow="visible" transform="translate(0 -1016.362)" class="colorffffff svgShape"></path><path fill="#ffffff" style="isolation:auto;mix-blend-mode:normal" d="M34.5 1034.863a16 16 0 0 1-16 16 16 16 0 0 1-16-16 16 16 0 0 1 16-16 16 16 0 0 1 16 16z" color="#000" overflow="visible" transform="translate(0 -1016.362)" class="colorffffff svgShape"></path><path fill="#ffffff" d="M29.577 1023.363H26.9c-.554 0-1-.446-1-1s.446-1 1-1h.12m-2.52 6a1 1 0 1 0 0 2 1 1 0 0 0 0-2zm8.14 0H28.5c-.554 0-1 .446-1 1s.446 1 1 1h2c.554 0 1 .446 1 1s-.446 1-1 1h-4c-.554 0-1 .446-1 1s.446 1 1 1h7.875m-30.25 8H16.5c.554 0 1-.446 1-1s-.446-1-1-1h-1c-.554 0-1-.446-1-1s.446-1 1-1h5c.554 0 1-.446 1-1s-.446-1-1-1H2.537m.258 2h1.776c.554 0 1 .446 1 1s-.446 1-1 1H3.324m3.248 6H11.5c.554 0 1-.446 1-1s-.446-1-1-1H5.291m6.45 6h1.76c.553 0 1-.446 1-1s-.447-1-1-1H8.63m23.096-4H23.5c-.554 0-1 .446-1 1s.446 1 1 1h2c.554 0 1 .446 1 1s-.446 1-1 1H24c-.554 0-1 .446-1 1s.446 1 1 1h1.18m-3.68-9a1 1 0 0 1-1 1 1 1 0 0 1-1-1 1 1 0 0 1 1-1 1 1 0 0 1 1 1zm4-2a1 1 0 0 1-1 1 1 1 0 0 1-1-1 1 1 0 0 1 1-1 1 1 0 0 1 1 1zm-20.226-12.5a16 16 0 0 0-2.483 6h6.71c.553 0 1-.446 1-1s-.447-1-1-1h-1c-.555 0-1-.446-1-1s.445-1 1-1h5c.553 0 1-.446 1-1s-.447-1-1-1H5.273z" color="#000" overflow="visible" style="isolation:auto;mix-blend-mode:normal" transform="translate(0 -1016.362)" class="colorffffff svgShape"></path><path fill="#ffffff" fill-rule="evenodd" d="M22.475 3H20.501c-.555 0-1 .447-1 1 0 .555.445 1 1 1h1c.553 0 1 .447 1 1 0 .555-.447 1-1 1h-2c-.555 0-1 .447-1 1 0 .555.445 1 1 1h11.843" class="colorffffff svgShape"></path><path fill="#c2f8f8" style="isolation:auto;mix-blend-mode:normal" d="M21.5 1040.363a1 1 0 0 1-1 1 1 1 0 0 1-1-1 1 1 0 0 1 1-1 1 1 0 0 1 1 1zm3-13a1 1 0 1 0 0 2 1 1 0 0 0 0-2zm8.14 0H28.5c-.554 0-1 .446-1 1s.446 1 1 1h2c.554 0 1 .446 1 1s-.446 1-1 1h-4c-.554 0-1 .446-1 1s.446 1 1 1h7.875zm-28.515 14H16.5c.554 0 1-.446 1-1s-.446-1-1-1h-1c-.554 0-1-.446-1-1s.446-1 1-1h5c.554 0 1-.446 1-1s-.446-1-1-1H2.537l.258 2h1.776c.554 0 1 .446 1 1s-.446 1-1 1H3.324zm2.447 4H11.5c.554 0 1-.446 1-1s-.446-1-1-1H5.291zm5.17 4H13.5c.554 0 1-.446 1-1s-.446-1-1-1H8.632zm20.49-5.653-8.732-.347c-.554 0-1 .446-1 1s.446 1 1 1h2c.554 0 1 .446 1 1s-.446 1-1 1H24c-.554 0-1 .446-1 1s.446 1 1 1h1.18zm-6.732-5.347a1 1 0 0 1-1 1 1 1 0 0 1-1-1 1 1 0 0 1 1-1 1 1 0 0 1 1 1zm-20.226-12.5a16 16 0 0 0-2.483 6h6.71c.553 0 1-.446 1-1s-.447-1-1-1h-1c-.555 0-1-.446-1-1s.445-1 1-1h5c.553 0 1-.446 1-1s-.447-1-1-1z" color="#000" overflow="visible" transform="translate(0 -1016.362)" class="colorc2e4f8 svgShape"></path><path fill="#c2f8f8" fill-rule="evenodd" d="M24.596 3.559 21.35 3h-.85c-.555 0-1 .446-1 1s.445 1 1 1h1c.553 0 1 .446 1 1s-.447 1-1 1h-2c-.555 0-1 .446-1 1s.445 1 1 1l12.021-.112z" class="colorc2e4f8 svgShape"></path><path fill="#009999" style="line-height:normal;text-indent:0;text-align:start;text-decoration-line:none;text-decoration-style:solid;text-decoration-color:#000;text-transform:none;block-progression:tb;isolation:auto;mix-blend-mode:normal" d="M18.5 1018.362c-9.107 0-16.5 7.393-16.5 16.5s7.393 16.5 16.5 16.5 16.5-7.393 16.5-16.5-7.393-16.5-16.5-16.5zm0 1c8.566 0 15.5 6.934 15.5 15.5 0 8.566-6.934 15.5-15.5 15.5-8.566 0-15.5-6.934-15.5-15.5 0-8.566 6.934-15.5 15.5-15.5z" color="#000" font-family="sans-serif" font-weight="400" overflow="visible" transform="translate(0 -1016.362)" class="color249fe6 svgShape"></path><path fill="#009999" style="line-height:normal;text-indent:0;text-align:start;text-decoration-line:none;text-decoration-style:solid;text-decoration-color:#000;text-transform:none;block-progression:tb;isolation:auto;mix-blend-mode:normal" d="M18.5 1018.362c-9.107 0-16.5 7.393-16.5 16.5s7.393 16.5 16.5 16.5 16.5-7.393 16.5-16.5-7.393-16.5-16.5-16.5zm0 1c8.566 0 15.5 6.934 15.5 15.5 0 8.566-6.934 15.5-15.5 15.5-8.566 0-15.5-6.934-15.5-15.5 0-8.566 6.934-15.5 15.5-15.5z" color="#000" font-family="sans-serif" font-weight="400" overflow="visible" transform="translate(0 -1016.362)" class="color249fe6 svgShape"></path><path fill="#009999" style="line-height:normal;text-indent:0;text-align:start;text-decoration-line:none;text-decoration-style:solid;text-decoration-color:#000;text-transform:none;block-progression:tb;isolation:auto;mix-blend-mode:normal" d="M26.9 1020.862c-.822 0-1.5.678-1.5 1.5 0 .823.678 1.5 1.5 1.5h2.678a.5.5 0 1 0 0-1H26.9a.488.488 0 0 1-.5-.5c0-.285.215-.5.5-.5h.12a.5.5 0 1 0 0-1h-.12zm-2.4 6c-.823 0-1.5.678-1.5 1.5 0 .823.678 1.5 1.5 1.5s1.5-.677 1.5-1.5c0-.822-.677-1.5-1.5-1.5zm4 0c-.822 0-1.5.678-1.5 1.5s.678 1.5 1.5 1.5h2c.286 0 .5.214.5.5 0 .286-.214.5-.5.5h-4c-.822 0-1.5.678-1.5 1.5s.678 1.5 1.5 1.5h7.875a.5.5 0 1 0 0-1H26.5a.488.488 0 0 1-.5-.5c0-.286.214-.5.5-.5h4c.822 0 1.5-.678 1.5-1.5s-.678-1.5-1.5-1.5h-2a.488.488 0 0 1-.5-.5c0-.286.214-.5.5-.5h4.14a.5.5 0 1 0 0-1H28.5zm-4 1c.282 0 .5.218.5.5 0 .282-.218.5-.5.5a.493.493 0 0 1-.5-.5c0-.282.218-.5.5-.5zm-21.963 7a.5.5 0 1 0 0 1H20.5c.286 0 .5.214.5.5 0 .286-.214.5-.5.5h-5c-.822 0-1.5.678-1.5 1.5s.678 1.5 1.5 1.5h1c.286 0 .5.214.5.5 0 .286-.214.5-.5.5H4.125a.5.5 0 1 0 0 1H16.5c.822 0 1.5-.678 1.5-1.5s-.678-1.5-1.5-1.5h-1a.488.488 0 0 1-.5-.5c0-.286.214-.5.5-.5h5c.822 0 1.5-.678 1.5-1.5s-.678-1.5-1.5-1.5H2.537zm.258 2a.5.5 0 1 0 0 1h1.777c.286 0 .5.214.5.5 0 .286-.214.5-.5.5H3.324a.5.5 0 1 0 0 1h1.248c.823 0 1.5-.678 1.5-1.5s-.677-1.5-1.5-1.5H2.795zm2.496 6a.5.5 0 1 0 0 1H11.5c.286 0 .5.214.5.5 0 .286-.214.5-.5.5H6.572a.5.5 0 1 0 0 1H11.5c.822 0 1.5-.678 1.5-1.5s-.678-1.5-1.5-1.5H5.291zm3.342 4a.5.5 0 1 0 0 1H13.5c.286 0 .5.214.5.5 0 .286-.214.5-.5.5h-1.758a.5.5 0 1 0 0 1H13.5c.822 0 1.5-.678 1.5-1.5s-.678-1.5-1.5-1.5H8.633zm14.867-4a.5.5 0 0 0-.34.143c-.64.17-1.16.667-1.16 1.357 0 .822.678 1.5 1.5 1.5h2c.286 0 .5.214.5.5 0 .286-.214.5-.5.5H24c-.822 0-1.5.678-1.5 1.5s.678 1.5 1.5 1.5h1.18a.5.5 0 1 0 0-1H24a.488.488 0 0 1-.5-.5c0-.286.214-.5.5-.5h1.5c.822 0 1.5-.678 1.5-1.5s-.678-1.5-1.5-1.5h-2a.488.488 0 0 1-.5-.5c0-.286.214-.5.5-.5h8.227a.5.5 0 1 0 0-1h-8.221a.5.5 0 0 0-.006 0z" color="#000" font-family="sans-serif" font-weight="400" overflow="visible" transform="translate(0 -1016.362)" class="color249fe6 svgShape"></path><path fill="#009999" style="line-height:normal;text-indent:0;text-align:start;text-decoration-line:none;text-decoration-style:solid;text-decoration-color:#000;text-transform:none;block-progression:tb;isolation:auto;mix-blend-mode:normal" d="M20.5 1038.862c-.823 0-1.5.678-1.5 1.5 0 .823.677 1.5 1.5 1.5s1.5-.677 1.5-1.5c0-.822-.677-1.5-1.5-1.5zm0 1c.282 0 .5.218.5.5 0 .282-.218.5-.5.5a.493.493 0 0 1-.5-.5c0-.282.218-.5.5-.5zm4-3c-.823 0-1.5.678-1.5 1.5 0 .823.677 1.5 1.5 1.5s1.5-.677 1.5-1.5c0-.822-.677-1.5-1.5-1.5zm0 1c.282 0 .5.218.5.5 0 .282-.218.5-.5.5a.493.493 0 0 1-.5-.5c0-.282.218-.5.5-.5zm-19.227-12.5a.5.5 0 0 0-.414.22 16.499 16.499 0 0 0-2.558 6.188.5.5 0 0 0 .49.592H9.5c.822 0 1.5-.678 1.5-1.5s-.678-1.5-1.5-1.5h-1a.488.488 0 0 1-.5-.5c0-.286.214-.5.5-.5h5c.822 0 1.5-.678 1.5-1.5s-.678-1.5-1.5-1.5H5.273zm.297 1h7.93c.286 0 .5.214.5.5 0 .286-.214.5-.5.5h-5c-.822 0-1.5.678-1.5 1.5s.678 1.5 1.5 1.5h1c.286 0 .5.214.5.5 0 .286-.214.5-.5.5H3.46c.414-1.777 1.109-3.473 2.11-5z" color="#000" font-family="sans-serif" font-weight="400" overflow="visible" transform="translate(0 -1016.362)" class="color249fe6 svgShape"></path><path fill="#009999" fill-rule="evenodd" style="line-height:normal;text-indent:0;text-align:start;text-decoration-line:none;text-decoration-style:solid;text-decoration-color:#000;text-transform:none;block-progression:tb;isolation:auto;mix-blend-mode:normal" d="M20.5 1018.862c-.822 0-1.5.678-1.5 1.5 0 .823.678 1.5 1.5 1.5h1c.286 0 .5.215.5.5 0 .286-.214.5-.5.5h-2c-.822 0-1.5.678-1.5 1.5s.678 1.5 1.5 1.5h11.844a.5.5 0 1 0 0-1H19.5a.488.488 0 0 1-.5-.5c0-.286.214-.5.5-.5h2c.822 0 1.5-.677 1.5-1.5 0-.822-.678-1.5-1.5-1.5h-1a.488.488 0 0 1-.5-.5c0-.285.214-.5.5-.5h1.975a.5.5 0 1 0 0-1H20.5z" color="#000" font-family="sans-serif" font-weight="400" overflow="visible" transform="translate(0 -1016.362)" class="color249fe6 svgShape"></path></svg>