<svg xmlns="http://www.w3.org/2000/svg" viewBox="0 0 64 64" id="Observatory"><path d="M61.9239,14.7979l-4-9.68a.9994.9994,0,0,0-1.5029-.4336l-7.9879,5.667a25.5332,25.5332,0,0,0-3.02-3.4825,1.0014,1.0014,0,0,0-1.4014.0147L42,8.9026A21.69,21.69,0,0,0,27.66,3.5h-.0049l-.002,0A21.83,21.83,0,0,0,6.5391,31H3a.9994.9994,0,0,0-1,1V59.5a.9994.9994,0,0,0,1,1H52.3106a1,1,0,0,0,1-1V32a1,1,0,0,0-1-1h-3.54a21.8574,21.8574,0,0,0,.7085-4.64h2.83a.9994.9994,0,0,0,1-1,25.2546,25.2546,0,0,0-1.1421-7.4686l9.021-1.73a1,1,0,0,0,.7354-1.3642ZM41.36,10.9941a19.9023,19.9023,0,0,1,5.5412,9.5752H39.74c-.7333-6-2.8226-10.992-5.6955-13.9986A19.7167,19.7167,0,0,1,41.36,10.9941ZM39.9271,22.5693h7.3681A19.581,19.581,0,0,1,47.52,25.36,19.9081,19.9081,0,0,1,46.7071,31H39.6163a38.4534,38.4534,0,0,0,.4179-5.6377C40.0342,24.4119,39.9907,23.4846,39.9271,22.5693ZM28.6553,5.6c4.3345.8364,7.9728,7.0352,9.0466,14.9689H28.6553Zm0,16.9689h9.2586c.0711.9169.12,1.8451.12,2.793A36.4547,36.4547,0,0,1,37.6016,31H28.6553Zm-2-16.9689V20.5693H17.6078C18.6816,12.6354,22.32,6.4367,26.6553,5.6Zm0,16.9689V31H17.7091a36.3864,36.3864,0,0,1-.4336-5.6377c0-.9479.0492-1.8761.12-2.793ZM21.26,6.5769c-2.87,3.0072-4.9571,7.9969-5.69,13.9924H8.3991A19.9153,19.9153,0,0,1,21.26,6.5769ZM8.01,22.5693h7.3728c-.0636.9153-.1071,1.8426-.1071,2.793A38.4114,38.4114,0,0,0,15.6942,31H8.6036A19.2083,19.2083,0,0,1,8.01,22.5693ZM31,58.5H4v-2H31Zm14,0H33v-14H45Zm6.31,0H47v-15a1,1,0,0,0-1-1H32a.9994.9994,0,0,0-1,1v11H4v-17H51.3106Zm0-25.5v2.5H4V33H51.3106Zm-1.8144-8.64c-.0006-.0124-.0028-.0246-.0035-.037-.0283-.5884-.0858-1.1729-.1617-1.7546-.012-.0924-.0225-.1846-.0358-.2769q-.1211-.844-.3084-1.6739c-.0222-.0991-.0457-.1976-.0693-.2963-.1328-.5559-.2839-1.1066-.4592-1.65-.0237-.0732-.05-.1451-.0747-.2181-.1891-.5652-.3957-1.1244-.63-1.6722l-.0056-.014c-.2347-.5481-.4974-1.0838-.7759-1.6113-.0382-.0723-.0741-.1455-.1131-.2173-.271-.5-.5639-.9874-.8733-1.4653-.0561-.0866-.1122-.1728-.1695-.2586q-.4714-.706-.9967-1.3762c-.0577-.0734-.1177-.1448-.1763-.2175-.3689-.4566-.7523-.9024-1.1588-1.3293l-.0215-.0247,1.2578-1.2617a22.9813,22.9813,0,0,1,2.6406,3.3027,22.2547,22.2547,0,0,1,2.4373,4.783c.0435.1188.0947.2352.1359.3547h0l.0048.0126a23.2037,23.2037,0,0,1,1.35,6.9014Zm2.03-8.3829c-.0308-.0794-.0719-.1552-.1036-.2344-.2321-.58-.4812-1.1546-.7593-1.7173-.0136-.0273-.0246-.0555-.0383-.0828-.2949-.5911-.6222-1.1674-.966-1.7349-.0389-.0643-.07-.1324-.1093-.1964l7.0049-4.97,3.0527,7.3867Z" fill="#009999" class="color000000 svgShape"></path><path d="M10.544,49.6221a17.4649,17.4649,0,0,0,2.1791-.172,5.4954,5.4954,0,0,0,9.7488-2.8943c3.3408-1.5683,4.8383-3.0758,4.4041-4.4865-.6118-1.97-4.3374-1.6709-7.5031-1.0233a5.4739,5.4739,0,0,0-7.1689,2.2707c-2.7149,1.1834-5.65,2.9319-5.08,4.8024C7.4356,49.12,8.5821,49.6221,10.544,49.6221Zm14.2686-6.9209A8.6984,8.6984,0,0,1,22.27,44.434a5.4767,5.4767,0,0,0-.8623-1.71A9.3833,9.3833,0,0,1,24.8126,42.7012ZM17,49.5a3.46,3.46,0,0,1-1.7716-.4987c.9032-.2,1.8189-.4312,2.7511-.7181.7422-.2269,1.4547-.4719,2.14-.7291A3.4923,3.4923,0,0,1,17,49.5Zm0-7a3.5046,3.5046,0,0,1,3.4211,2.7711c-.9434.3943-1.9447.7683-3.0286,1.1a32.0252,32.0252,0,0,1-3.65.8854A3.4681,3.4681,0,0,1,13.5,46,3.5042,3.5042,0,0,1,17,42.5Zm-5.4934,3.3693c-.001.0438-.0066.0866-.0066.1307a5.4766,5.4766,0,0,0,.2284,1.5588,7.6186,7.6186,0,0,1-2.539-.0764A8.4515,8.4515,0,0,1,11.5067,45.8693Z" fill="#009999" class="color000000 svgShape"></path></svg>