<svg xmlns="http://www.w3.org/2000/svg" enable-background="new 0 0 24 24" viewBox="0 0 24 24" id="performance"><g fill="#009999" class="color000000 svgShape"><path d="M12,3C6.4858,3,2,7.4858,2,13c0,2.4673,0.9077,4.8354,2.5562,6.6685c0.3696,0.4106,1.0015,0.4453,1.4121,0.0752
			c0.4106-0.3691,0.4443-1.0015,0.0752-1.4121C4.9506,17.1163,4.2726,15.6051,4.0704,14H5c0.5522,0,1-0.4478,1-1s-0.4478-1-1-1
			H4.0695c0.183-1.4575,0.7587-2.7916,1.6189-3.8976L6.293,8.707C6.4883,8.9023,6.7441,9,7,9s0.5117-0.0977,0.707-0.293
			c0.3906-0.3906,0.3906-1.0234,0-1.4141L7.1024,6.6884C8.2084,5.8282,9.5425,5.2524,11,5.0695V6c0,0.5522,0.4478,1,1,1
			s1-0.4478,1-1V5.0695c1.4575,0.183,2.7916,0.7587,3.8976,1.6189L16.293,7.293c-0.3906,0.3906-0.3906,1.0234,0,1.4141
			C16.4883,8.9023,16.7441,9,17,9s0.5117-0.0977,0.707-0.293l0.6046-0.6046c0.8602,1.106,1.4359,2.4401,1.6189,3.8976H19
			c-0.5522,0-1,0.4478-1,1s0.4478,1,1,1h0.9296c-0.2022,1.6051-0.8802,3.1163-1.9731,4.3315
			c-0.3691,0.4106-0.3354,1.043,0.0752,1.4121C18.2227,19.9155,18.4614,20,18.6997,20c0.2739,0,0.5464-0.1118,0.7441-0.3315
			C21.0923,17.8354,22,15.4673,22,13C22,7.4858,17.5142,3,12,3z" fill="#009999" class="color000000 svgShape"></path><path d="M15.707,10.293c-0.3906-0.3906-1.0234-0.3906-1.4141,0l-1.7814,1.7814C12.3474,12.0307,12.178,12,12,12
			c-1.1046,0-2,0.8954-2,2c0,1.1046,0.8954,2,2,2s2-0.8954,2-2c0-0.178-0.0307-0.3474-0.0743-0.5116l1.7814-1.7814
			C16.0977,11.3164,16.0977,10.6836,15.707,10.293z" fill="#009999" class="color000000 svgShape"></path></g></svg>