<svg xmlns="http://www.w3.org/2000/svg" viewBox="0 0 64 64" id="planets"><path d="M49 32a15.87 15.87 0 0 1-.12 2h0a16.8 16.8 0 0 1-.39 2.16 0 0 0 0 1 0 0 .36.36 0 0 1 0 .1.5.5 0 0 1 0 .13 17.06 17.06 0 0 1-4.51 7.74A17 17 0 0 1 33.05 49H33A1 1 0 0 1 32 48v0a1 1 0 0 1 .93-1 14.91 14.91 0 0 0 8.87-3.61A15.1 15.1 0 0 0 46.7 35c0-.26.1-.53.14-.79 0 0 0 0 0 0A14.48 14.48 0 0 0 47 32c0-.33 0-.67 0-1a14.78 14.78 0 0 0-.26-2l0-.15a6.23 6.23 0 0 0-.15-.62c-.05-.2-.1-.41-.17-.61a14.29 14.29 0 0 0-.92-2.33c-.13-.26-.27-.52-.42-.77s-.33-.56-.51-.83l0 0c-.15-.22-.3-.44-.46-.65s-.27-.36-.42-.53-.24-.29-.36-.43l-.09-.1-.45-.47c-.15-.16-.31-.32-.48-.47l-.5-.44a15.44 15.44 0 0 0-1.52-1.14l-.25-.15a4.64 4.64 0 0 0-.42-.25c-.14-.09-.29-.17-.44-.25l-.49-.25c-.18-.1-.37-.18-.55-.26l-.85-.34q-.31-.12-.63-.21t-.6-.18c-.44-.12-.9-.22-1.36-.3l-.51-.08-.67-.08c-.28 0-.57-.05-.86-.06H32a15 15 0 0 0-12 6 15.3 15.3 0 0 0-1.26 2 14.8 14.8 0 0 0-1.44 4c0 .07 0 .13 0 .2A13.41 13.41 0 0 0 17 31a5.49 5.49 0 0 0 0 .58c0 .14 0 .28 0 .42a15 15 0 0 0 1.73 7A15.58 15.58 0 0 0 20 41c.23.3.46.59.71.87a1 1 0 0 1-.08 1.39l0 0a1 1 0 0 1-1.41-.1 16.65 16.65 0 0 1-1.85-2.58.92.92 0 0 1-.13-.24A16.9 16.9 0 0 1 15 32a15.87 15.87 0 0 1 .12-2s0 0 0 0a1.23 1.23 0 0 1 0-.2 15.46 15.46 0 0 1 .39-2.05 17 17 0 0 1 1.66-4.09h0a2.34 2.34 0 0 1 .15-.27s0 0 0 0a16.5 16.5 0 0 1 2.74-3.48 15.76 15.76 0 0 1 1.76-1.51A16.84 16.84 0 0 1 32 15h.64l.79.05a16.92 16.92 0 0 1 2.76.46c.41.1.81.22 1.21.35l.14.05c.3.1.61.22.9.34l.09 0q.54.22 1 .48a14.19 14.19 0 0 1 2 1.19l.24.17a14.23 14.23 0 0 1 1.36 1.07l.06.06c.17.14.32.28.48.44a16.89 16.89 0 0 1 2 2.29c.27.38.53.76.77 1.16a18.52 18.52 0 0 1 1.26 2.52c.17.44.33.89.47 1.35s.26.92.36 1.4a12.29 12.29 0 0 1 .22 1.33v0a.78.78 0 0 1 0 .22A16.77 16.77 0 0 1 49 32zM31.27 48a1 1 0 0 1-1 .93 1 1 0 0 1-.9-.56 4.89 4.89 0 0 0-.36-.63 3.62 3.62 0 0 0-.22-.32s0 0 0 0-.11-.14-.17-.2a.35.35 0 0 0-.08-.1 3.62 3.62 0 0 0-.38-.41L28 46.5a2.09 2.09 0 0 0-.28-.24 2.31 2.31 0 0 0-.36-.25l0 0 0 0a4.27 4.27 0 0 0-.51-.3l-.32-.16a2.5 2.5 0 0 0-.38-.15l-.26-.09-.3-.08-.37-.08a4.85 4.85 0 0 0-.55-.08A5.49 5.49 0 0 0 24 45a4 4 0 0 0-.7 0 3.65 3.65 0 0 0-.46.07 1.47 1.47 0 0 0-.35.08h-.06l-.29.09a1 1 0 0 1-1.07-1.61 1 1 0 0 1 .28-.23l.16-.06A7.87 7.87 0 0 1 24 43a8 8 0 0 1 7.18 4.47A.91.91 0 0 1 31.27 48zM51.89 47.8a1 1 0 0 1 0-2c1.4 0 2.33-.28 2.62-.8.7-1.21-1.29-4.81-7.32-9.84a1 1 0 0 1 1.28-1.54c3.76 3.14 9.77 8.92 7.78 12.38C55.56 47.19 54.1 47.8 51.89 47.8z" fill="#009999" class="color000000 svgShape"></path><path d="M44.75,45.46a1,1,0,0,1-1,.69,1.12,1.12,0,0,1-.31,0l-1.34-.46-.52-.19-.6-.23-1.16-.45a91.84,91.84,0,0,1-8.64-4.06c-1-.54-2.07-1.11-3.1-1.71L28,38.93a94.92,94.92,0,0,1-11-7.35L16.29,31l-.24-.2-.52-.42-.4-.33s0,0,0,0c-3.77-3.21-9.29-8.7-7.37-12s9.46-1.3,14.12.37l.5.18a.86.86,0,0,1,.44.35,1,1,0,0,1,.15.94,1,1,0,0,1-1.29.59l-.52-.19-1-.36c-6.39-2.15-10-2-10.62-.88s1,4.29,6,8.75l.85.73.42.36L17,29l.25.2c.73.61,1.49,1.2,2.29,1.8A95.41,95.41,0,0,0,29,37.19c.81.47,1.61.92,2.42,1.35s1.42.77,2.12,1.12a80.41,80.41,0,0,0,8.25,3.7l.54.21.52.19c.36.13.71.26,1.06.37l.21.07A1,1,0,0,1,44.75,45.46Z" fill="#009999" class="color000000 svgShape"></path><path d="M20 23a15.3 15.3 0 0 0-1.26 2h-.6a.94.94 0 0 1-.47-.12 1 1 0 0 1-.53-.88 1 1 0 0 1 .06-.34h0a2.34 2.34 0 0 1 .15-.27s0 0 0 0a1 1 0 0 1 .77-.36zM48.88 30A1 1 0 0 1 48 31H47a14.78 14.78 0 0 0-.26-2h1.18a1 1 0 0 1 1 .76v0A.78.78 0 0 1 48.88 30zM18.73 39A15.58 15.58 0 0 0 20 41H18.14a1 1 0 0 1-.8-.4.92.92 0 0 1-.13-.24.86.86 0 0 1-.07-.36 1 1 0 0 1 .53-.88.94.94 0 0 1 .47-.12zM33.54 39.66a7.66 7.66 0 0 1-2.31 1.05c-1-.54-2.07-1.11-3.1-1.71h1a5.77 5.77 0 0 0 2.25-.46C32.13 38.93 32.84 39.31 33.54 39.66zM48.5 36a.57.57 0 0 1 0 .13 0 0 0 0 1 0 0 .36.36 0 0 1 0 .1.5.5 0 0 1 0 .13 1 1 0 0 1-.92.61H46.14a15.19 15.19 0 0 0 .56-2h.8a.78.78 0 0 1 .22 0A1 1 0 0 1 48.5 36zM19.55 31H16a1 1 0 0 1-.9-.94V30a1.23 1.23 0 0 1 0-.2 1 1 0 0 1 1-.8H17.3c0 .07 0 .13 0 .2C18 29.81 18.75 30.4 19.55 31zM45.49 22a1 1 0 0 1-.4.8 1.05 1.05 0 0 1-.6.2H44c-.13-.18-.27-.36-.42-.53s-.24-.29-.36-.43l-.09-.1-.45-.47c-.15-.16-.31-.32-.48-.47h2.28A1 1 0 0 1 45.49 22zM31.41 48c-.07-.18-.15-.35-.23-.52A8 8 0 0 0 24 43a7.87 7.87 0 0 0-2.49.4l-.16.06-.38.13A8 8 0 1 0 32 51 7.88 7.88 0 0 0 31.41 48zM24 57a6 6 0 0 1-1.86-11.7c.1 0 .19-.07.29-.09h.06a1.47 1.47 0 0 1 .35-.08 3.65 3.65 0 0 1 .46-.07 4 4 0 0 1 .7 0 5.49 5.49 0 0 1 .58 0l.55.08.37.08.3.08.26.09a2.5 2.5 0 0 1 .38.15l.32.16a4.27 4.27 0 0 1 .51.3l0 0 0 0a2.31 2.31 0 0 1 .36.25 2.09 2.09 0 0 1 .28.24l.18.16a3.62 3.62 0 0 1 .38.41.35.35 0 0 1 .08.1c.06.06.11.13.17.2s0 0 0 0a3.62 3.62 0 0 1 .22.32 4.89 4.89 0 0 1 .36.63A5.93 5.93 0 0 1 30 51 6 6 0 0 1 24 57z" fill="#009999" class="color000000 svgShape"></path><path d="M50,27.86a1,1,0,0,1-.71-.29,1,1,0,0,1,0-1.41A9.42,9.42,0,0,0,52,19.5a9.56,9.56,0,0,0-1-4.2A9.42,9.42,0,0,0,42.5,10a9.3,9.3,0,0,0-3,.47A9.54,9.54,0,0,0,34.75,14a1,1,0,0,1-1.39.24,1,1,0,0,1-.24-1.4,11.57,11.57,0,0,1,5.8-4.27A11.23,11.23,0,0,1,42.5,8a11.43,11.43,0,0,1,10.32,6.42A11.58,11.58,0,0,1,54,19.5a11.39,11.39,0,0,1-3.3,8.06A1,1,0,0,1,50,27.86Z" fill="#009999" class="color000000 svgShape"></path><path d="M48.63 28.43a1 1 0 0 1-.16.77 1 1 0 0 1-.61.42h0l-.18 0a1 1 0 0 1-.94-.64c0-.05 0-.1 0-.15a6.23 6.23 0 0 0-.15-.62c-.05-.21-.11-.41-.17-.61a14.29 14.29 0 0 0-.92-2.33c-.13-.26-.27-.52-.42-.77s-.33-.56-.51-.83l0 0c-.14-.22-.3-.44-.46-.65s-.27-.36-.42-.53a4.82 4.82 0 0 0-.36-.43l-.09-.1c-.14-.16-.29-.32-.45-.47s-.31-.32-.48-.47-.33-.3-.5-.44a15.44 15.44 0 0 0-1.52-1.14l-.25-.15a4.64 4.64 0 0 0-.42-.25c-.14-.09-.29-.17-.44-.25l-.49-.25L38 18.26l-.85-.34q-.31-.12-.63-.21t-.6-.18c-.44-.12-.9-.22-1.36-.3l-.51-.08c-.22 0-.44-.06-.67-.08s-.57-.05-.86-.06a1 1 0 0 1-1-1v0a1 1 0 0 1 1-1h0l.79.05a16.92 16.92 0 0 1 2.76.46c.41.1.81.22 1.21.35l.14.05c.3.1.61.22.9.34l.09 0q.54.22 1 .48a14.19 14.19 0 0 1 2 1.19l.24.17a14.23 14.23 0 0 1 1.36 1.07l.06.06c.17.14.32.28.48.44a16.89 16.89 0 0 1 2 2.29c.27.38.53.76.77 1.16a18.52 18.52 0 0 1 1.26 2.52c.17.44.33.89.47 1.35S48.53 28 48.63 28.43zM9 30a5 5 0 1 0 5 5A5 5 0 0 0 9 30zm0 8a3 3 0 1 1 3-3A3 3 0 0 1 9 38zM42 13a1 1 0 0 1-.71-.29 1 1 0 0 1 0-1.42l2.5-2.5a1 1 0 0 1 1.42 1.42l-2.5 2.5A1 1 0 0 1 42 13z" fill="#009999" class="color000000 svgShape"></path><path d="M42 20a1 1 0 0 1-.71-.29 1 1 0 0 1 0-1.42l2.5-2.5a1 1 0 0 1 1.42 1.42l-2.5 2.5A1 1 0 0 1 42 20zM48 22a1 1 0 0 1-.71-.29 1 1 0 0 1 0-1.42l4.5-4.5a1 1 0 0 1 1.42 1.42l-4.5 4.5A1 1 0 0 1 48 22z" fill="#009999" class="color000000 svgShape"></path><circle cx="16" cy="12" r="1" fill="#009999" class="color000000 svgShape"></circle><circle cx="57" cy="25" r="1" fill="#009999" class="color000000 svgShape"></circle><circle cx="53" cy="34" r="1" fill="#009999" class="color000000 svgShape"></circle><circle cx="35" cy="58" r="1" fill="#009999" class="color000000 svgShape"></circle><circle cx="39" cy="51" r="1" fill="#009999" class="color000000 svgShape"></circle><circle cx="12" cy="45" r="1" fill="#009999" class="color000000 svgShape"></circle><circle cx="35" cy="6" r="1" fill="#009999" class="color000000 svgShape"></circle><circle cx="27" cy="13" r="1" fill="#009999" class="color000000 svgShape"></circle><path d="M53,45.73a4,4,0,1,0-.41,2A3.94,3.94,0,0,0,53,46,2.44,2.44,0,0,0,53,45.73ZM49,48a2,2,0,1,1,2-2,1.87,1.87,0,0,1-.09.59h0A2,2,0,0,1,49,48Z" fill="#009999" class="color000000 svgShape"></path><path d="M30,33a1,1,0,1,0,1,1A1,1,0,0,0,30,33Zm0,0a1,1,0,1,0,1,1A1,1,0,0,0,30,33Zm0,0a1,1,0,1,0,1,1A1,1,0,0,0,30,33Zm0,0a1,1,0,1,0,1,1A1,1,0,0,0,30,33Zm18-2c0-.46-.08-.92-.14-1.37,0-.21-.07-.41-.11-.62a15.81,15.81,0,0,0-2.63-6.2A14.08,14.08,0,0,0,43.62,21,16.54,16.54,0,0,0,41,18.78,16,16,0,0,0,32,16h-.4a15.88,15.88,0,0,0-8.79,2.89,14.3,14.3,0,0,0-1.66,1.34A15.75,15.75,0,0,0,18.76,23a16.71,16.71,0,0,0-1.09,1.88,15.42,15.42,0,0,0-1.28,3.6c0,.17-.08.35-.11.52a15.26,15.26,0,0,0-.23,1.8c0,.06,0,.12,0,.19,0,.33,0,.67,0,1a15.88,15.88,0,0,0,1.67,7.12A16.71,16.71,0,0,0,18.76,41a16.2,16.2,0,0,0,1.86,2.26l.35.33.1.1a15.16,15.16,0,0,0,1.77,1.43,3.65,3.65,0,0,1,.46-.07,4,4,0,0,1,.7,0,5.49,5.49,0,0,1,.58,0l.55.08.37.08.3.08.26.09a2.5,2.5,0,0,1,.38.15l.32.16a4.27,4.27,0,0,1,.51.3l0,0,0,0a2.31,2.31,0,0,1,.36.25,2.09,2.09,0,0,1,.28.24l.18.16a3.62,3.62,0,0,1,.38.41.35.35,0,0,1,.08.1c.06.06.11.13.17.2s0,0,0,0a3.62,3.62,0,0,1,.22.32,15,15,0,0,0,2.25.26H32A16,16,0,0,0,47.2,37a14.7,14.7,0,0,0,.41-1.48c0-.16.07-.33.11-.49.1-.54.17-1.08.22-1.63S48,32.47,48,32,48,31.32,48,31Zm-5.28-9.52.45.47.09.1c.12.14.25.28.36.43s.29.35.42.53H36a1,1,0,0,1,0-2h6.21C42.38,21.15,42.54,21.31,42.69,21.47ZM20,23h4.39a13.43,13.43,0,0,1,8.76,3.24,11.55,11.55,0,0,0,3.49,2.05,11.34,11.34,0,0,0,4,.71H46.7A14.78,14.78,0,0,1,47,31H40.61a13.44,13.44,0,0,1-4.67-.83,13.59,13.59,0,0,1-4.09-2.41A11.45,11.45,0,0,0,24.39,25H18.74A15.3,15.3,0,0,1,20,23Zm7,11a3,3,0,1,1,3,3A3,3,0,0,1,27,34Zm0-5a1,1,0,0,1,0,2H19.55c-.8-.6-1.56-1.19-2.29-1.8,0-.07,0-.13,0-.2ZM20,41a15.58,15.58,0,0,1-1.26-2h9.4c1,.6,2.07,1.17,3.1,1.71a7.54,7.54,0,0,1-2.06.29Zm18.84-4a5.83,5.83,0,0,0-4.12,1.71,7.05,7.05,0,0,1-1.17.95c-.7-.35-1.41-.73-2.12-1.12a5.64,5.64,0,0,0,1.87-1.25A7.93,7.93,0,0,1,38.83,35H46.7a15.19,15.19,0,0,1-.56,2ZM30,33a1,1,0,1,0,1,1A1,1,0,0,0,30,33Zm0,0a1,1,0,1,0,1,1A1,1,0,0,0,30,33Zm0,0a1,1,0,1,0,1,1A1,1,0,0,0,30,33Z" opacity=".2" fill="#009999" class="color000000 svgShape"></path></svg>