<svg xmlns="http://www.w3.org/2000/svg" fill-rule="evenodd" stroke-linejoin="round" stroke-miterlimit="2" clip-rule="evenodd" viewBox="0 0 32 32" id="OnlineEducationmultiplequiz"><path d="m24.572 27.901-1.733 1a.999.999 0 0 1-1.495-.962l.83-8.562a1 1 0 0 1 1.41-.814l7.83 3.562a1 1 0 0 1 .086 1.776l-1.732 1 1.5 2.599a3 3 0 1 1-5.196 3l-1.5-2.599Zm4.245-4.76-4.787-2.178-.508 5.235.916-.529a1 1 0 0 1 1.366.366l2 3.465a1 1 0 0 0 1.732-1l-2-3.465a1 1 0 0 1 .366-1.366l.915-.528ZM18.473 23.34l1.732-1a1 1 0 0 0-1-1.733l-1.732 1a1 1 0 0 0 1 1.732ZM27.134 18.34l1.732-1a1 1 0 0 0-1-1.733l-1.732 1a1 1 0 0 0 1 1.732ZM22.036 15.509l-1-1.732a1 1 0 0 0-1.732 1l1 1.732a1 1 0 0 0 1.732-1ZM2 9V3a1 1 0 0 1 1-1V1v1a1 1 0 0 1 1 1v6a1 1 0 0 0 2 0V3a3 3 0 0 0-3-3v1-1a3 3 0 0 0-3 3v6a1 1 0 0 0 2 0ZM2 20v-7a1 1 0 0 0-2 0v7a1 1 0 0 0 2 0Z" fill="#009999" class="color000000 svgShape"></path><path d="M1 6.5h3.5a1 1 0 0 0 0-2H1a1 1 0 0 0 0 2ZM5 15h1a3 3 0 0 1-3 3H1a1 1 0 0 1-1-1v-4a1 1 0 0 1 1-1h2a3 3 0 0 1 3 3H5h1-1Zm-1 0a1 1 0 0 0-1-1H2v2h1a1 1 0 0 0 1-1h1-1Z" fill="#009999" class="color000000 svgShape"></path><path d="M5 19h1a3 3 0 0 1-3 3H1a1 1 0 0 1-1-1v-4a1 1 0 0 1 1-1h2a3 3 0 0 1 3 3H5h1-1Zm-1 0a1 1 0 0 0-1-1H2v2h1a1 1 0 0 0 1-1h1-1ZM16.999 17a3 3 0 0 0-3-3h-3a3 3 0 0 0-3 3h1-1a3 3 0 0 0 3 3h3a3 3 0 0 0 3-3h-1 1Zm-1 0h-1a1 1 0 0 1-1 1h-3a1 1 0 0 1-1-1h-1 1a1 1 0 0 1 1-1h3a1 1 0 0 1 1 1h1ZM31 5h1a3 3 0 0 0-3-3H11a2.998 2.998 0 0 0-3 3h1-1a3 3 0 0 0 3 3h18a2.998 2.998 0 0 0 3-3h-1Zm-1 0h1-1a.999.999 0 0 1-1 1H11a1 1 0 0 1-1-1H9h1a.999.999 0 0 1 1-1h18a1 1 0 0 1 1 1Z" fill="#009999" class="color000000 svgShape"></path></svg>