<svg xmlns="http://www.w3.org/2000/svg" data-name="Layer 3" viewBox="0 0 64 64" id="Radar"><path d="M32,1A31,31,0,1,0,63,32,31.035,31.035,0,0,0,32,1Zm0,60A29,29,0,1,1,61,32,29.034,29.034,0,0,1,32,61Z" fill="#009999" class="color000000 svgShape"></path><rect width="2" height="2" x="31" y="5" fill="#009999" class="color000000 svgShape"></rect><rect width="2" height="2" x="31" y="13" fill="#009999" class="color000000 svgShape"></rect><rect width="2" height="2" x="31" y="21" fill="#009999" class="color000000 svgShape"></rect><path d="M48.936,16.478l2.771-2.771-1.414-1.414L33.285,29.3A2.951,2.951,0,0,0,32,29a3,3,0,1,0,3,3,2.951,2.951,0,0,0-.3-1.285l1.472-1.472A5,5,0,1,1,32,27V25a7.018,7.018,0,1,0,5.6,2.813l4.264-4.264A12.991,12.991,0,1,1,32,19V17a15.038,15.038,0,1,0,11.279,5.135l4.243-4.243a20.849,20.849,0,0,1,4.423,20.634A3.951,3.951,0,0,0,50,38a3.986,3.986,0,0,0-1.912,7.491,20.96,20.96,0,0,1-29.132,2.945A3.925,3.925,0,0,0,19,48a4,4,0,0,0-4-4c-.07,0-.135.017-.2.021a20.919,20.919,0,0,1,2.136-26.614A3.954,3.954,0,0,0,19,18a3.965,3.965,0,0,0,3.885-4.914A21.062,21.062,0,0,1,32,11V9a23.065,23.065,0,0,0-10.052,2.319,3.979,3.979,0,0,0-6.417,4.634,22.953,22.953,0,0,0-2.718,28.705A3.993,3.993,0,1,0,18.2,50.375a22.945,22.945,0,0,0,32.056-4.4A3.993,3.993,0,0,0,54,42a3.946,3.946,0,0,0-.493-1.883,22.87,22.87,0,0,0-4.571-23.639ZM32,33a1,1,0,1,1,1-1A1,1,0,0,1,32,33ZM19,12a2,2,0,1,1-2,2A2,2,0,0,1,19,12ZM15,50a2,2,0,1,1,2-2A2,2,0,0,1,15,50Zm35-6a2,2,0,1,1,2-2A2,2,0,0,1,50,44Z" fill="#009999" class="color000000 svgShape"></path><rect width="2" height="2" x="31" y="41" fill="#009999" class="color000000 svgShape"></rect><rect width="2" height="2" x="31" y="49" fill="#009999" class="color000000 svgShape"></rect><rect width="2" height="2" x="31" y="57" fill="#009999" class="color000000 svgShape"></rect><rect width="2" height="2" x="57" y="31" fill="#009999" class="color000000 svgShape"></rect><rect width="2" height="2" x="49" y="31" fill="#009999" class="color000000 svgShape"></rect><rect width="2" height="2" x="41" y="31" fill="#009999" class="color000000 svgShape"></rect><rect width="2" height="2" x="21" y="31" fill="#009999" class="color000000 svgShape"></rect><rect width="2" height="2" x="13" y="31" fill="#009999" class="color000000 svgShape"></rect><rect width="2" height="2" x="5" y="31" fill="#009999" class="color000000 svgShape"></rect></svg>