<svg id="SvgjsSvg1001" width="288" height="288" xmlns="http://www.w3.org/2000/svg" version="1.1" xmlns:xlink="http://www.w3.org/1999/xlink" xmlns:svgjs="http://svgjs.com/svgjs"><defs id="SvgjsDefs1002"></defs><g id="SvgjsG1008"><svg xmlns="http://www.w3.org/2000/svg" enable-background="new 0 0 48 48" viewBox="0 0 48 48" width="288" height="288"><path fill="#009999" d="M21.292 32.082c-.116 1.073-.562 2.116-1.382 2.937l-2.747 2.747c-.925.925-2.155 1.434-3.464 1.434s-2.539-.509-3.464-1.434c-1.909-1.91-1.909-5.018 0-6.928l2.747-2.747c.799-.799 1.83-1.264 2.938-1.383l3.369-3.369c-.903-.312-1.858-.483-2.842-.483-2.324 0-4.508.905-6.151 2.548l-2.747 2.747c-3.391 3.392-3.391 8.91 0 12.302C9.191 42.095 11.375 43 13.698 43s4.508-.905 6.151-2.548l2.747-2.747c2.428-2.428 3.108-5.942 2.06-8.989L21.292 32.082zM40.452 7.548C38.809 5.905 36.625 5 34.302 5s-4.508.905-6.151 2.548l-2.747 2.747c-2.428 2.428-3.108 5.942-2.06 8.989l3.365-3.365c.116-1.073.562-2.116 1.382-2.937l2.747-2.747C31.762 9.309 32.993 8.8 34.302 8.8s2.539.509 3.464 1.434c1.909 1.91 1.909 5.018 0 6.928l-2.747 2.747c-.799.799-1.83 1.264-2.938 1.383l-3.369 3.369c.903.312 1.858.483 2.842.483 2.324 0 4.508-.905 6.151-2.548l2.747-2.747C43.843 16.458 43.843 10.939 40.452 7.548z" class="colorff9800 svgShape"></path><rect width="2" height="10.296" x="36.5" y="27.352" fill="#009999" transform="rotate(-60.929 37.503 32.501)" class="colorff9800 svgShape"></rect><rect width="2" height="10.296" x="31.5" y="32.352" fill="#009999" transform="rotate(-29.05 32.506 37.502)" class="colorff9800 svgShape"></rect><rect width="2" height="10.296" x="9.5" y="10.352" fill="#009999" transform="rotate(-60.948 10.5 15.5)" class="colorff9800 svgShape"></rect><rect width="2" height="10.296" x="14.5" y="5.352" fill="#009999" transform="rotate(-29.05 15.502 10.5)" class="colorff9800 svgShape"></rect></svg></g></svg>