<svg xmlns="http://www.w3.org/2000/svg" width="64" height="64" enable-background="new 0 0 64 64" viewBox="0 0 64 64" id="satellite"><path fill="#2C2E63" d="M16.881,51.362c0.536,0,0.97-0.434,0.97-0.97c0-0.536-0.434-0.97-0.97-0.97
		c-1.277,0-2.315-1.039-2.315-2.315c0-0.535-0.434-0.97-0.97-0.97c-0.536,0-0.97,0.434-0.97,0.97
		C12.626,49.454,14.535,51.362,16.881,51.362z"></path><path fill="#2C2E63" d="M17.138,53.079c-3.435,0-6.229-2.795-6.229-6.229c0-0.535-0.434-0.97-0.97-0.97
		c-0.536,0-0.97,0.434-0.97,0.97c0,4.504,3.665,8.169,8.169,8.169c0.536,0,0.97-0.434,0.97-0.97
		C18.108,53.514,17.674,53.079,17.138,53.079z"></path><path fill="#2C2E63" d="M17.008 56.482c-5.239 0-9.501-4.262-9.501-9.502 0-.535-.434-.97-.97-.97-.536 0-.97.434-.97.97 0 6.309 5.133 11.441 11.441 11.441.536 0 .97-.434.97-.97C17.977 56.916 17.544 56.482 17.008 56.482zM63.182 49.707l-8.21-8.2-8.2-8.2c-1.06-1.06-2.92-1.06-3.99 0l-2.65 2.66-1.48-1.49 5.77-5.77c1.32-1.32 1.8-3.15 1.46-4.85l3.9-1.33c.32-.11.56-.37.64-.7.07-.32-.03-.67-.26-.9l-7.1-7.1c-.23-.24-.58-.33-.9-.26-.33.08-.59.32-.7.63l-1.33 3.91c-1.7-.34-3.54.14-4.85 1.45l-5.78 5.78-1.48-1.48 2.66-2.66c1.1-1.1 1.1-2.89 0-3.99L17.694 4.229l-3.42-3.42c-1.06-1.06-2.92-1.06-3.99 0l-9.46 9.46c-1.1 1.1-1.1 2.89 0 3.99l8.21 8.2 4.78 4.79 3.42 3.41c.53.54 1.24.83 1.99.83.76 0 1.46-.29 2-.83l2.65-2.65 1.48 1.48-.42.42c-.54.55-.54 1.43 0 1.98l.04.03-2.56 2.55c-.38.38-.38 1 0 1.38l.67.66-1.61 1.61c-.93-.61-1.88-1.07-2.8-1.36-1.98-.62-3.65-.38-4.7.68-.38.38-.38.99 0 1.37l4.92 4.92-.43.43c-.84-.3-1.84-.13-2.49.52-.92.92-.92 2.41 0 3.33.45.45 1.04.69 1.67.69.63 0 1.22-.24 1.67-.69.44-.44.69-1.03.69-1.66 0-.29-.06-.57-.16-.83l.42-.42 4.92 4.92c.18.18.43.28.68.28.26 0 .51-.1.69-.28 1.58-1.59 1.22-4.58-.69-7.5l1.61-1.61.67.66c.19.19.43.29.68.29.25 0 .5-.1.69-.29l2.55-2.55.04.03c.26.27.62.41.99.41.37 0 .72-.14.99-.41l.41-.41 1.49 1.48-2.66 2.65c-1.1 1.1-1.1 2.89 0 3.99l8.2 8.2h.01l8.2 8.2c.55.55 1.27.83 1.99.83.72 0 1.45-.28 2-.83l9.46-9.459C64.272 52.597 64.272 50.807 63.182 49.707zM17.944 46.637c-.22.22-.38.21-.6 0-.16-.16-.16-.43 0-.59.11-.11.24-.12.3-.12.07 0 .19.01.3.12.1.11.12.23.12.3C18.064 46.407 18.044 46.537 17.944 46.637zM42.793 16.298l4.89 4.9-2.53.86c-.21-.32-.44-.63-.73-.91l-1.58-1.59c-.28-.28-.59-.52-.91-.72L42.793 16.298zM2.205 12.888c-.35-.34-.35-.9 0-1.25l9.46-9.46c.16-.16.38-.25.62-.25.23 0 .46.09.62.25l2.73 2.73L4.935 15.618 2.205 12.888zM6.305 16.988l10.7-10.71 3.42 3.42-10.71 10.7L6.305 16.988zM11.085 21.778l10.709-10.71 3.41 3.41-10.7 10.71L11.085 21.778zM23.204 25.938c-.01.01-.01.01-.02.01 0 .01-.01.01-.01.02l-3.32 3.32c-.34.34-.92.34-1.25 0l-2.73-2.73 10.71-10.7 2.73 2.73c.34.34.34.9 0 1.24l-3.33 3.33c-.01 0-.01.01-.02.01 0 .01 0 .01-.01.02L23.204 25.938zM25.244 26.638l1.41-1.41 1.48 1.48-1.41 1.41L25.244 26.638zM25.604 47.697l-9.31-9.31c.5-.07 1.11.01 1.8.22 1.47.46 3.04 1.47 4.43 2.86C24.804 43.747 25.804 46.227 25.604 47.697zM24.684 40.957c-.25-.29-.51-.58-.79-.86-.28-.28-.57-.54-.86-.79l1.42-1.42 1.65 1.65L24.684 40.957zM28.824 39.517l-4.35-4.36 1.87-1.87 4.35 4.36L28.824 39.517zM33.094 37.297l-6.4-6.4 9.96-9.97c1.33-1.32 3.49-1.32 4.82 0l1.58 1.59c1.33 1.33 1.33 3.49 0 4.82L33.094 37.297zM35.863 37.267l1.42-1.42 1.48 1.49-1.41 1.41L35.863 37.267zM34.694 45.387c-.34-.35-.34-.9 0-1.25l3.34-3.33c.01-.01.01-.01.01-.01l2.77-2.77c0 0 0 0 .01-.01 0 0 0 0 0-.01l3.33-3.33c.17-.16.39-.26.63-.26.23 0 .45.1.62.26l2.73 2.73-10.709 10.71L34.694 45.387zM38.803 49.487l10.7-10.71 3.42 3.42-10.71 10.7L38.803 49.487zM43.583 54.277l10.709-10.709 3.41 3.41-10.699 10.71L43.583 54.277zM61.802 52.327l-9.46 9.46c-.34.35-.9.35-1.24 0l-2.73-2.73 10.7-10.7 2.73 2.73C62.153 51.427 62.153 51.987 61.802 52.327z"></path><polygon fill="#FFDC7C" points="38.764 37.337 37.353 38.747 35.863 37.267 37.284 35.847"></polygon><rect width="1.994" height="2.093" x="25.692" y="25.626" fill="#FFDC7C" transform="rotate(-45.004 26.687 26.671)"></rect><path fill="#FFDC7C" d="M47.683 21.198l-2.53.86c-.21-.32-.44-.63-.73-.91l-1.58-1.59c-.28-.28-.59-.52-.91-.72l.86-2.54L47.683 21.198zM18.064 46.347c0 .06-.02.19-.12.29-.22.22-.38.21-.6 0-.16-.16-.16-.43 0-.59.11-.11.24-.12.3-.12.07 0 .19.01.3.12C18.044 46.157 18.064 46.277 18.064 46.347z"></path><path fill="#F26E61" d="M26.104,39.537l-1.42,1.42c-0.25-0.29-0.51-0.58-0.79-0.86c-0.28-0.28-0.57-0.54-0.86-0.79l1.42-1.42
		L26.104,39.537z"></path><polygon fill="#FFDC7C" points="30.694 37.647 28.824 39.517 24.474 35.157 26.344 33.287"></polygon><path fill="#FFDC7C" d="M25.604,47.697l-9.31-9.31c0.5-0.07,1.11,0.01,1.8,0.22c1.47,0.46,3.04,1.47,4.43,2.86
		C24.804,43.747,25.804,46.227,25.604,47.697z"></path><path fill="#F26E61" d="M43.053,27.338l-9.96,9.96l-6.4-6.4l9.96-9.97c1.33-1.32,3.49-1.32,4.82,0l1.58,1.59
		C44.383,23.848,44.383,26.008,43.053,27.338z"></path><path fill="#E15E5A" d="M43.056,27.341l-1.973,1.973c1.329-1.329,1.322-3.486-0.007-4.815l-1.577-1.591
		c-1.336-1.322-3.493-1.329-4.822,0l1.98-1.98c1.322-1.322,3.486-1.322,4.822,0l1.577,1.591
		C44.385,23.848,44.385,26.012,43.056,27.341z"></path><polygon fill="#F26E61" points="57.703 46.977 47.003 57.687 43.583 54.277 54.293 43.567"></polygon><path fill="#F26E61" d="M48.133,37.407l-10.709,10.71l-2.73-2.73c-0.34-0.35-0.34-0.9,0-1.25l3.34-3.33
		c0.01-0.01,0.01-0.01,0.01-0.01l2.77-2.77c0,0,0,0,0.01-0.01c0,0,0,0,0-0.01l3.33-3.33c0.17-0.16,0.39-0.26,0.63-0.26
		c0.23,0,0.45,0.1,0.62,0.26L48.133,37.407z"></path><path fill="#FFDC7C" d="M61.802,52.327l-9.46,9.46c-0.34,0.35-0.9,0.35-1.24,0l-2.73-2.73l10.7-10.7l2.73,2.73
		C62.153,51.427,62.153,51.987,61.802,52.327z"></path><polygon fill="#FFDC7C" points="52.923 42.197 42.213 52.897 38.803 49.487 49.503 38.777"></polygon><path fill="#FFDC7C" d="M15.634,4.909L4.935,15.618l-2.73-2.73c-0.35-0.34-0.35-0.9,0-1.25l9.46-9.46
		c0.16-0.16,0.38-0.25,0.62-0.25c0.23,0,0.46,0.09,0.62,0.25L15.634,4.909z"></path><path fill="#EDC35E" d="M61.801 52.322l-9.461 9.461c-.339.354-.891.354-1.237.007l-2.729-2.729 1.266-1.266 1.039 1.039c.311.325.792.368 1.054.106l7.226-7.226c.262-.262.219-.743-.106-1.054l-1.039-1.039 1.266-1.266 2.729 2.729C62.154 51.431 62.154 51.983 61.801 52.322zM12.284 5.026l-7.233 7.233c-.269.269-.219.742.106 1.054l1.04 1.039L4.93 15.618l-2.729-2.729c-.346-.347-.346-.898.007-1.252l9.461-9.461c.156-.155.375-.248.615-.247.226 0 .46.092.622.254l2.729 2.729-1.259 1.259L13.33 5.125c-.148-.148-.354-.24-.544-.262C12.581 4.842 12.404 4.906 12.284 5.026z"></path><polygon fill="#FFDC7C" points="25.204 14.478 14.505 25.188 11.085 21.778 21.794 11.068"></polygon><polygon fill="#F26E61" points="20.424 9.698 9.715 20.398 6.305 16.988 17.004 6.279"></polygon><path fill="#F26E61" d="M29.314,19.828l-3.33,3.33c-0.01,0-0.01,0.01-0.02,0.01c0,0.01,0,0.01-0.01,0.02l-2.75,2.75
		c-0.01,0.01-0.01,0.01-0.02,0.01c0,0.01-0.01,0.01-0.01,0.02l-3.32,3.32c-0.34,0.34-0.92,0.34-1.25,0l-2.73-2.73l10.71-10.7
		l2.73,2.73C29.654,18.928,29.654,19.488,29.314,19.828z"></path><rect width="1.79" height="4.83" x="45.032" y="52.934" fill="#E15E5A" transform="rotate(-45.001 45.926 55.35)"></rect><rect width="1.782" height="4.822" x="54.472" y="43.493" fill="#E15E5A" transform="rotate(-45.001 55.366 45.906)"></rect><path fill="#E15E5A" d="M38.693 46.85l-1.266 1.266-2.729-2.729c-.346-.346-.346-.898-.007-1.251l.644-.643L38.693 46.85zM48.133 37.41l-1.259 1.259-3.359-3.359.636-.636c.17-.155.396-.254.636-.254.226 0 .445.092.615.261L48.133 37.41z"></path><rect width="1.79" height="4.83" x="40.245" y="48.147" fill="#EDC35E" transform="rotate(-45.001 41.14 50.562)"></rect><rect width="1.78" height="4.83" x="49.693" y="38.704" fill="#EDC35E" transform="rotate(-45.001 50.583 41.12)"></rect><rect width="1.78" height="4.82" x="21.979" y="10.995" fill="#EDC35E" transform="rotate(-45.001 22.869 13.405)"></rect><rect width="1.79" height="4.83" x="12.534" y="20.436" fill="#EDC35E" transform="rotate(-45.001 13.43 22.852)"></rect><rect width="1.79" height="4.82" x="7.744" y="15.651" fill="#E15E5A" transform="rotate(-45.001 8.64 18.062)"></rect><rect width="1.78" height="4.84" x="17.192" y="6.198" fill="#E15E5A" transform="rotate(-45.001 18.082 8.618)"></rect><path fill="#E15E5A" d="M20.493 28.649l-.636.636c-.339.339-.919.339-1.252.007l-2.736-2.736 1.266-1.266L20.493 28.649zM29.318 19.825l-.643.643-3.352-3.351 1.259-1.259 2.729 2.729C29.65 18.927 29.657 19.486 29.318 19.825z"></path></svg>