<svg xmlns="http://www.w3.org/2000/svg" viewBox="0 0 6.615 6.615" id="sound"><path d="M3.8.81a.378.378 0 0 0-.207.08L1.785 2.295a.396.396 0 0 0-.33-.178h-.53a.398.398 0 0 0-.396.396v1.588c0 .218.179.396.396.396h.53a.396.396 0 0 0 .33-.178l1.808 1.405a.4.4 0 0 0 .639-.312v-4.21A.403.403 0 0 0 3.801.81Zm.028.257c.073-.008.14.047.14.136v4.21c0 .118-.119.176-.212.103l-1.854-1.44a.133.133 0 0 1-.05-.105V2.643a.13.13 0 0 1 .05-.104l1.854-1.441a.146.146 0 0 1 .072-.031zm2.123.254a.132.132 0 0 0-.131.135V5.16c-.002.179.267.179.266 0V1.456a.132.132 0 0 0-.135-.135zm-.53.529a.132.132 0 0 0-.13.135V4.63c-.002.179.267.179.265 0V1.985a.132.132 0 0 0-.134-.135zM.926 2.38h.53c.075 0 .133.058.133.133v1.588a.13.13 0 0 1-.133.13h-.53a.13.13 0 0 1-.133-.13V2.514c0-.075.059-.133.133-.133zm3.967.124-.013.001a.133.133 0 0 0-.118.133v1.324c0 .178.266.178.266 0V2.64a.132.132 0 0 0-.135-.134z" color="#000" font-family="sans-serif" font-weight="400" overflow="visible" style="line-height:normal;font-variant-ligatures:normal;font-variant-position:normal;font-variant-caps:normal;font-variant-numeric:normal;font-variant-alternates:normal;font-feature-settings:normal;text-indent:0;text-align:start;text-decoration-line:none;text-decoration-style:solid;text-decoration-color:#000;text-transform:none;text-orientation:mixed;shape-padding:0;isolation:auto;mix-blend-mode:normal" fill="#009999" class="color000000 svgShape"></path></svg>