<svg xmlns="http://www.w3.org/2000/svg" enable-background="new 0 0 510 320" viewBox="0 0 510 320" id="SpeechBubble"><path d="M452.348,39.93C416.199,14.181,368.31,0,317.5,0c-21.427,0-42.416,2.528-62.437,7.504
			C235.187,2.574,214.11,0,192.5,0C141.69,0,93.8,14.181,57.651,39.931C20.474,66.414,0,101.952,0,140
			c0,22.802,7.646,45.41,22.111,65.381c12.361,17.064,29.74,32.276,50.554,44.312l-13.813,57.99
			c-0.907,3.811,0.493,7.8,3.583,10.207c1.792,1.396,3.962,2.11,6.146,2.11c1.581,0,3.169-0.374,4.627-1.136l79.997-41.771
			c12.863,1.93,26.064,2.906,39.295,2.906c21.61,0,42.687-2.574,62.562-7.504c20.021,4.975,41.01,7.504,62.438,7.504
			c13.242,0,26.443-0.979,39.294-2.909l79.997,41.773c1.458,0.762,3.047,1.136,4.628,1.136c2.184,0,4.353-0.715,6.146-2.11
			c3.09-2.406,4.491-6.396,3.583-10.206l-13.809-57.993c20.814-12.032,38.192-27.242,50.553-44.308
			C502.354,185.413,510,162.805,510,140C510,101.951,489.525,66.412,452.348,39.93z M153.111,256.835
			c-2.135-0.352-4.325,0.003-6.242,1.005l-63.48,33.146l10.494-44.056c1.058-4.443-1.028-9.039-5.07-11.166
			C45.724,213.084,20,177.284,20,140C20,73.832,97.383,20,192.5,20c20.901,0,40.945,2.601,59.501,7.36
			c0.299,0.094,0.602,0.175,0.909,0.241C318.319,44.669,365,88.61,365,140c0,51.394-46.69,95.339-112.108,112.404
			c-0.287,0.062-0.569,0.138-0.848,0.225C233.476,257.394,213.417,260,192.5,260C179.206,260,165.954,258.936,153.111,256.835z
			 M421.192,235.761c-4.042,2.127-6.129,6.723-5.071,11.166l10.492,44.06l-63.484-33.15c-1.919-1.002-4.11-1.353-6.246-1.004
			C344.057,258.934,330.807,260,317.5,260c-7.778,0-15.49-0.359-23.105-1.072c11.776-5.341,22.826-11.645,32.953-18.859
			C364.525,213.587,385,178.048,385,140s-20.475-73.586-57.651-100.069c-10.127-7.214-21.177-13.519-32.953-18.859
			C302.011,20.359,309.722,20,317.5,20C412.617,20,490,73.832,490,140C490,177.29,464.277,213.089,421.192,235.761z" fill="#009999" class="color000000 svgShape"></path><path d="M99 105c-16.542 0-30 13.458-30 30s13.458 30 30 30 30-13.458 30-30S115.542 105 99 105zM99 145c-5.514 0-10-4.486-10-10s4.486-10 10-10 10 4.486 10 10S104.514 145 99 145zM189 105c-16.542 0-30 13.458-30 30s13.458 30 30 30 30-13.458 30-30S205.542 105 189 105zM189 145c-5.514 0-10-4.486-10-10s4.486-10 10-10 10 4.486 10 10S194.514 145 189 145zM276 165c16.542 0 30-13.458 30-30s-13.458-30-30-30-30 13.458-30 30S259.458 165 276 165zM276 125c5.514 0 10 4.486 10 10s-4.486 10-10 10-10-4.486-10-10S270.486 125 276 125z" fill="#009999" class="color000000 svgShape"></path></svg>