<svg id="SvgjsSvg1027" width="288" height="288" xmlns="http://www.w3.org/2000/svg" version="1.1" xmlns:xlink="http://www.w3.org/1999/xlink" xmlns:svgjs="http://svgjs.com/svgjs"><defs id="SvgjsDefs1028"></defs><g id="SvgjsG1029"><svg xmlns="http://www.w3.org/2000/svg" enable-background="new 0 0 32 32" viewBox="0 0 32 32" width="288" height="288"><polygon fill="#808080" points="11 16 3 6 29 16 3 26" class="color45aaf2 svgShape"></polygon><path fill="#808080" d="M3.0005,27c-0.3125,0-0.6147-0.1465-0.8076-0.4092c-0.2666-0.3652-0.2559-0.8633,0.0264-1.2158l7.5-9.375l-7.5-9.375C1.937,6.2725,1.9263,5.7744,2.1929,5.4092C2.459,5.0459,2.937,4.9043,3.3589,5.0664l26,10C29.7451,15.2148,30,15.5859,30,16s-0.2549,0.7852-0.6411,0.9336l-26,10C3.2417,26.9785,3.1201,27,3.0005,27z M6.0879,8.2588l5.6929,7.1162c0.2925,0.3652,0.2925,0.8848,0,1.25l-5.6929,7.1162L26.2144,16L6.0879,8.2588z" class="color3867d6 svgShape"></path></svg></g></svg>