<svg xmlns="http://www.w3.org/2000/svg" enable-background="new 0 0 68 68" viewBox="0 0 68 68" id="Telescope"><path d="M55.2,3c-1.3-1.9-3.7-2.6-5.7-1.6c-2.1,0.9-3.2,3.2-2.7,5.3L25.4,18.7c-0.3,0.1-0.8,0.5-1,1.2c-0.2,0.5-0.2,1.1-0.2,1.8
		L1.9,33.1c-0.3,0.1-0.8,0.5-0.9,1.4c-0.2,2.3,2.3,8,4.1,9.3c0.6,0.4,1.2,0.5,1.6,0.3L26,36.6c0.3,1.1,0.9,2,1.8,2.7L13.4,65.5
		c-0.3,0.5-0.1,1.1,0.4,1.4c0.5,0.3,1.1,0.1,1.4-0.4l14.3-26.2c0.3,0.1,0.7,0.2,1,0.3l0,25.4c0,0.6,0.4,1,1,1c0.6,0,1-0.4,1-1
		l0-25.4c0.4-0.1,0.7-0.2,1.1-0.3l14.3,26.2c0.3,0.5,0.9,0.7,1.4,0.4c0.5-0.3,0.7-0.9,0.4-1.4L35.3,39.3c1.2-1.1,2-2.6,2-4.4
		c0-0.1,0-0.1,0-0.2l19-6.4c1.3,1.8,3.6,2.5,5.7,1.6c2.1-0.9,3.2-3.2,2.7-5.4c2.7-2.1,3.2-8,0.8-13.5C63.6,7,59.4,2.2,55.2,3z
		 M25.7,34.6L6.2,42.2c-1.1-0.8-3.4-6-3.2-7.4l21.6-11.2c0.6,2.4,1.7,5.1,2.8,7.2C26.4,31.8,25.8,33.1,25.7,34.6z M31.5,38.7
		c-2.1,0-3.8-1.7-3.8-3.8c0-2.1,1.7-3.8,3.8-3.8c2.1,0,3.8,1.7,3.8,3.8C35.3,37,33.6,38.7,31.5,38.7z M36.9,32.8
		c-0.8-2.1-2.9-3.7-5.4-3.7c-0.9,0-1.7,0.2-2.5,0.6c-2.2-4.3-3.1-8.4-2.7-9.2c0,0,0,0,0,0L47.5,8.6l7.8,17.9L36.9,32.8z M61.2,28.1
		c-1.3,0.6-3-0.1-3.5-1.4L48.9,6.8c-0.6-1.4,0-3,1.4-3.6c1.4-0.6,2.9,0,3.5,1.4l8.7,19.9C63.2,25.9,62.5,27.5,61.2,28.1z M63.9,22.6
		L56.2,5c3,0.1,6.1,3.8,7.4,7C65.5,16.3,65.3,20.8,63.9,22.6z" fill="#808080" class="color000000 svgShape"></path><path d="M57 36.1c-.6 0-1 .4-1 1V38h-.9c-.6 0-1 .4-1 1s.4 1 1 1H56v.9c0 .6.4 1 1 1s1-.4 1-1V40h.9c.6 0 1-.4 1-1s-.4-1-1-1H58v-.9C58 36.6 57.6 36.1 57 36.1zM35.1 8.2c.6 0 1-.4 1-1V6.3H37c.6 0 1-.4 1-1s-.4-1-1-1h-.9V3.4c0-.6-.4-1-1-1s-1 .4-1 1v.9h-.9c-.6 0-1 .4-1 1s.4 1 1 1h.9v.9C34.1 7.8 34.6 8.2 35.1 8.2zM23.6 11.3c.6 0 1-.4 1-1V9.4h.9c.6 0 1-.4 1-1s-.4-1-1-1h-.9V6.5c0-.6-.4-1-1-1s-1 .4-1 1v.9h-.9c-.6 0-1 .4-1 1s.4 1 1 1h.9v.9C22.6 10.8 23 11.3 23.6 11.3zM15.5 19.9c.6 0 1-.4 1-1v-.9h.9c.6 0 1-.4 1-1s-.4-1-1-1h-.9v-.9c0-.6-.4-1-1-1-.6 0-1 .4-1 1v.9h-.9c-.6 0-1 .4-1 1s.4 1 1 1h.9v.9C14.5 19.5 15 19.9 15.5 19.9zM47.7 47.2c.6 0 1-.4 1-1v-.9h.9c.6 0 1-.4 1-1s-.4-1-1-1h-.9v-.9c0-.6-.4-1-1-1s-1 .4-1 1v.9h-.9c-.6 0-1 .4-1 1s.4 1 1 1h.9v.9C46.7 46.7 47.2 47.2 47.7 47.2zM58.6 55.4c.6 0 1-.4 1-1v-.9h.9c.6 0 1-.4 1-1s-.4-1-1-1h-.9v-.9c0-.6-.4-1-1-1s-1 .4-1 1v.9h-.9c-.6 0-1 .4-1 1s.4 1 1 1h.9v.9C57.6 54.9 58.1 55.4 58.6 55.4zM30.8 34.2c-.4.4-.4 1 0 1.4.4.4 1 .4 1.4 0 .4-.4.4-1 0-1.4C31.8 33.8 31.2 33.8 30.8 34.2z" fill="#808080" class="color000000 svgShape"></path></svg>