<svg xmlns="http://www.w3.org/2000/svg" enable-background="new 0 0 84 84" viewBox="0 0 84 84" id="asteroid"><path fill="#e1e9ff" d="M42,10c0,0-8,0-14,8c-6,8-7,10-11,12s-7,3-7,13s10,7,13,16s8,15,19,15s9-7,16-9s16-6,16-13s-5-10-3-15s3-7,3-14
	c0-3.343-2.078-5.918-5.163-7.034c-1.584-0.573-3.239-0.719-4.911-0.687c-1.595,0.031-3.022,0.752-4.595,0.935
	c-3.554,0.414-5.185-2.436-7.921-4.044C48.573,10.503,45.249,10,42,10z"></path><path fill="#d7e0f4" d="M42.096,68.904c-7.579,0-11.442-3.139-14.256-11.581c-1.999-5.995-6.371-8.427-9.264-10.037
	c-2.984-1.66-3.479-2.003-3.479-4.382c0-6.434,0.777-6.817,3.669-8.247l0.566-0.281c4.437-2.218,6.264-4.692,10.269-10.114
	c0.728-0.985,1.548-2.096,2.495-3.358c4.377-5.837,9.945-6,10-6c2.931,0,5.18,0.484,6.876,1.481c0.493,0.29,1.05,0.752,1.639,1.242
	c1.694,1.407,4.254,3.533,8.132,3.533c0.415,0,0.84-0.025,1.263-0.074c1.079-0.126,2.021-0.388,2.779-0.599
	c0.503-0.14,1.073-0.299,1.333-0.304l0.332-0.003c1.158,0,2.042,0.125,2.783,0.393c1.236,0.447,1.863,1.231,1.863,2.332
	c0,5.579-0.616,7.109-2.263,11.199l-0.379,0.944c-1.863,4.657-0.173,8.419,1.06,11.166c0.849,1.891,1.583,3.524,1.583,5.691
	c0,2.829-4.857,6.045-12.374,8.192c-4.394,1.255-6.541,3.897-8.108,5.826C46.95,67.97,46.19,68.904,42.096,68.904z"></path><path fill="#ced9ed" d="M42.096,63.904c-4.79,0-7.17-1.134-9.513-8.162c-2.613-7.838-8.444-11.082-11.577-12.825
	c-0.258-0.143-0.554-0.229-0.782-0.423c-0.253-0.215-0.264-0.543-0.217-0.85c0.068-0.441,0.134-0.873,0.153-1.32
	c0.016-0.36,0.148-0.688,0.415-0.934c0.398-0.367,0.946-0.514,1.417-0.759c0.33-0.172,0.657-0.349,0.98-0.533
	c0.605-0.346,1.197-0.715,1.77-1.112c1.072-0.742,2.073-1.581,2.999-2.497c0.962-0.952,1.845-1.981,2.69-3.037
	c0.99-1.238,1.932-2.514,2.874-3.789c0.106-0.143,0.211-0.286,0.316-0.428c0.738-0.999,1.544-2.091,2.474-3.33
	c2.601-3.468,5.656-3.943,6.16-4c1.881,0.015,3.325,0.288,4.182,0.791c0.173,0.108,0.657,0.511,0.978,0.777
	c1.973,1.639,5.644,4.687,11.327,4.687c0.608,0,1.228-0.036,1.842-0.108l0.077-0.009c1.796-0.212,3.238,1.507,2.669,3.224
	c-0.278,0.837-0.648,1.756-1.136,2.968l-0.381,0.949c-2.653,6.633-0.187,12.126,1.138,15.077c0.006,0.014,0.012,0.027,0.018,0.041
	c0.805,1.794,0.04,3.889-1.718,4.77c-1.394,0.7-3.321,1.48-5.903,2.218c-5.908,1.688-8.854,5.314-10.624,7.492
	c-0.569,0.7-1.413,1.106-2.315,1.121C42.311,63.903,42.206,63.904,42.096,63.904z"></path><circle cx="61.5" cy="66.347" r="1" fill="#77d3f7"></circle><circle cx="14" cy="57.442" r="1" fill="#77d3f7"></circle><circle cx="74" cy="53" r="1" fill="#77d3f7"></circle><circle cx="18" cy="16.483" r="1" fill="#77d3f7"></circle><path fill="#c6aeff" d="M68.813 25.094c.019.086.097.148.187.148s.167-.062.187-.148c.004-.012.369-1.408 1.369-1.408.109 0 .194-.086.194-.194s-.086-.194-.194-.194c-.999 0-1.365-1.396-1.369-1.408-.043-.175-.331-.175-.373 0-.004.012-.369 1.408-1.369 1.408-.109 0-.194.086-.194.194s.086.194.194.194C68.444 23.686 68.809 25.082 68.813 25.094zM51.306 8.763c-.999 0-1.365-1.396-1.369-1.408-.043-.175-.331-.175-.373 0-.004.012-.369 1.408-1.369 1.408C48.086 8.763 48 8.849 48 8.957s.086.194.194.194c.999 0 1.365 1.396 1.369 1.408.019.086.097.148.187.148s.167-.062.187-.148c.004-.012.369-1.408 1.369-1.408.109 0 .194-.086.194-.194S51.414 8.763 51.306 8.763zM28.187 71.594c.004-.012.369-1.408 1.369-1.408.109 0 .194-.086.194-.194s-.086-.194-.194-.194c-.999 0-1.365-1.396-1.369-1.408-.043-.175-.331-.175-.373 0-.004.012-.369 1.408-1.369 1.408-.109 0-.194.086-.194.194s.086.194.194.194c.999 0 1.365 1.396 1.369 1.408.019.086.097.148.187.148S28.167 71.68 28.187 71.594zM14.806 24.797c-.999 0-1.365-1.396-1.369-1.408-.043-.175-.331-.175-.373 0-.004.012-.369 1.408-1.369 1.408-.109 0-.194.086-.194.194s.086.194.194.194c.999 0 1.365 1.396 1.369 1.408.019.086.097.148.187.148s.167-.062.187-.148c.004-.012.369-1.408 1.369-1.408.109 0 .194-.086.194-.194S14.914 24.797 14.806 24.797z"></path><path fill="#7e868c" d="M42,15c-5.45,0-10.7,1.62-15.19,4.68c-0.24,0.16-0.54,0.21-0.82,0.13c-0.18-0.05-0.38-0.1-0.6-0.17
	c-1.01-0.3-3.13-0.92-3.5-0.19c-0.43,0.87-0.76,2.84-0.88,5.27c-0.01,0.21-0.09,0.41-0.22,0.57c-2.49,3.17-4.21,6.75-5.09,10.58
	C15.23,37.85,15,39.91,15,42c0,5.55,1.67,10.88,4.84,15.42c0.11,0.16,0.17,0.34,0.18,0.53c0.11,2.92,0.43,5.24,0.93,6.73
	c0.23,0.71,3.09,0.53,4.62,0.43c0.69-0.04,1.37-0.09,2.01-0.1c0.01,0,0.01,0,0.02,0c0.18,0,0.36,0.05,0.52,0.14
	C32.3,67.67,37.1,69,42,69c6.39,0,12.27-2.23,16.9-5.97C65.06,58.09,69,50.5,69,42C69,27.11,56.89,15,42,15z M49,22
	c1.65,0,3,1.35,3,3h-2c0-0.55-0.45-1-1-1s-1,0.45-1,1h-2C46,23.35,47.35,22,49,22z M48,53c-1.1,0-2,0.9-2,2h-2c0-2.21,1.79-4,4-4
	s4,1.79,4,4c0,2.21-1.79,4-4,4v-2c1.1,0,2-0.9,2-2C50,53.9,49.1,53,48,53z M32,59v2c-1.65,0-3-1.35-3-3c0-1.65,1.35-3,3-3v2
	c-0.55,0-1,0.45-1,1S31.45,59,32,59z M47,35c2.21,0,4,1.79,4,4c0,2.21-1.79,4-4,4s-4-1.79-4-4C43,36.79,44.79,35,47,35z M31,23
	c2.76,0,5,2.24,5,5h-2c0-1.65-1.35-3-3-3s-3,1.35-3,3c0,1.65,1.35,3,3,3v2c-2.76,0-5-2.24-5-5S28.24,23,31,23z M28,40
	c1.65,0,3,1.35,3,3h-2c0-0.55-0.45-1-1-1s-1,0.45-1,1s0.45,1,1,1v2c-1.65,0-3-1.35-3-3C25,41.35,26.35,40,28,40z M58,46v-2
	c2.76,0,5-2.24,5-5s-2.24-5-5-5v-2c3.86,0,7,3.14,7,7S61.86,46,58,46z"></path><circle cx="47" cy="39" r="2" fill="#a2adb8"></circle><path fill="#a2adb8" d="M69,42c0,8.5-3.94,16.09-10.1,21.03c-3.67,1.5-7.69,2.33-11.9,2.33c-16.69,0-30.34-13.04-31.3-29.49
	c0.88-3.83,2.6-7.41,5.09-10.58c0.13-0.16,0.21-0.36,0.22-0.57c0.12-2.43,0.45-4.4,0.88-5.27c0.37-0.73,2.49-0.11,3.5,0.19
	c0.22,0.07,0.42,0.12,0.6,0.17c0.28,0.08,0.58,0.03,0.82-0.13C31.3,16.62,36.55,15,42,15C56.89,15,69,27.11,69,42z"></path><ellipse cx="55.407" cy="27.43" fill="#cad6e0" rx="3.771" ry="7.151" transform="rotate(-41.643 55.403 27.429)"></ellipse><path fill="#3e4354" d="M63 39c0-2.76-2.24-5-5-5v-2c3.86 0 7 3.14 7 7s-3.14 7-7 7v-2C60.76 44 63 41.76 63 39zM49 22c1.65 0 3 1.35 3 3h-2c0-.55-.45-1-1-1s-1 .45-1 1h-2C46 23.35 47.35 22 49 22zM48 53c-1.1 0-2 .9-2 2h-2c0-2.21 1.79-4 4-4s4 1.79 4 4-1.79 4-4 4v-2c1.1 0 2-.9 2-2S49.1 53 48 53zM45 39c0 1.1.9 2 2 2s2-.9 2-2-.9-2-2-2S45 37.9 45 39zM43 39c0-2.21 1.79-4 4-4s4 1.79 4 4-1.79 4-4 4S43 41.21 43 39zM31 58c0 .55.45 1 1 1v2c-1.65 0-3-1.35-3-3s1.35-3 3-3v2C31.45 57 31 57.45 31 58zM31 25c-1.65 0-3 1.35-3 3s1.35 3 3 3v2c-2.76 0-5-2.24-5-5s2.24-5 5-5 5 2.24 5 5h-2C34 26.35 32.65 25 31 25zM25 43c0-1.65 1.35-3 3-3s3 1.35 3 3h-2c0-.55-.45-1-1-1s-1 .45-1 1 .45 1 1 1v2C26.35 46 25 44.65 25 43z"></path><path fill="#3e4354" d="M21.01,24.72c-0.01,0.21-0.09,0.41-0.22,0.57C17,30.1,15,35.88,15,42c0,5.55,1.67,10.88,4.84,15.42
	c0.11,0.16,0.17,0.34,0.18,0.53c0.11,2.92,0.43,5.24,0.93,6.73c0.23,0.71,3.09,0.53,4.62,0.43c0.69-0.04,1.37-0.09,2.01-0.1
	c0.01,0,0.01,0,0.02,0c0.18,0,0.36,0.05,0.52,0.14C32.3,67.67,37.1,69,42,69c14.89,0,27-12.11,27-27S56.89,15,42,15
	c-5.45,0-10.7,1.62-15.19,4.68c-0.24,0.16-0.54,0.21-0.82,0.13c-0.18-0.05-0.38-0.1-0.6-0.17c-1.01-0.3-3.13-0.92-3.5-0.19
	C21.46,20.32,21.13,22.29,21.01,24.72z M19.03,24.3c0.09-1.64,0.36-4.3,1.07-5.75c1.11-2.21,4.08-1.34,5.86-0.83
	c0.04,0.02,0.08,0.03,0.12,0.04C30.81,14.64,36.31,13,42,13c15.99,0,29,13.01,29,29S57.99,71,42,71c-5.16,0-10.22-1.38-14.66-3.98
	c-0.53,0.02-1.08,0.05-1.64,0.09c-2.92,0.18-5.93,0.38-6.65-1.8c-0.67-2.01-0.93-4.85-1.02-6.99C14.74,53.5,13,47.86,13,42
	C13,35.53,15.08,29.42,19.03,24.3z"></path></svg>