<svg xmlns="http://www.w3.org/2000/svg" data-name="Artboard 30" viewBox="0 0 64 64" id="meteorite"><path fill="#e5cf61" d="M35.728,52.728A18,18,0,0,1,10.272,27.272L25,12v8L36,9.136V18L62,2,48,26H58L49,36h5Z"></path><polygon fill="#e58f27" points="24 26 32 18 33 24 47 17 40 30 49 30 36.959 41.038 32 42.999 23 29 24 26"></polygon><path fill="#5b4c3d" d="M34,31.251a13.981,13.981,0,0,0-8.838-5.193,5.1,5.1,0,0,0-3.613.8l-.015.01a6.078,6.078,0,0,1-3.38,1.026h0a5.186,5.186,0,0,0-3.674,1.527l-.893.9A2.012,2.012,0,0,0,13,31.743v1.191a1.992,1.992,0,0,1-1.992,1.993h0A2.007,2.007,0,0,0,9,36.934v3.012a14.047,14.047,0,0,0,5.243,10.966,2.277,2.277,0,0,0,3.087-.2h0A2.264,2.264,0,0,1,18.976,50h.256a2.265,2.265,0,0,1,2.2,1.715l.127.509a2.264,2.264,0,0,0,2.274,1.714l.764-.027A13.83,13.83,0,0,0,32,50.7a14.175,14.175,0,0,0,4.081-5.733,13.743,13.743,0,0,0,.831-3.419A14.415,14.415,0,0,0,36.867,38,14.021,14.021,0,0,0,34,31.251Z"></path><path fill="#473b30" d="M36.867,38a14.041,14.041,0,0,0-11.7-11.942,5.063,5.063,0,0,0-1.767.048A14.02,14.02,0,0,1,34.867,38a14.414,14.414,0,0,1,.045,3.546,13.743,13.743,0,0,1-.831,3.419A14.175,14.175,0,0,1,30,50.7a13.847,13.847,0,0,1-6.912,3.139,2.288,2.288,0,0,0,.742.1l.764-.027A13.83,13.83,0,0,0,32,50.7a14.175,14.175,0,0,0,4.081-5.733,13.743,13.743,0,0,0,.831-3.419A14.414,14.414,0,0,0,36.867,38Z"></path><ellipse cx="17" cy="39.5" fill="#493d32" rx="3" ry="2.5"></ellipse><ellipse cx="26.5" cy="34" fill="#493d32" rx="3.5" ry="3"></ellipse><circle cx="27" cy="45" r="3" fill="#493d32"></circle><rect width="24.04" height="2" x="-1.52" y="18.5" fill="#eb6354" transform="rotate(-45 10.5 19.5)"></rect><rect width="9.899" height="2" x="19.55" y="4.5" fill="#eb6354" transform="rotate(-45 24.5 5.5)"></rect><rect width="18.385" height="2" x="3.308" y="7.5" fill="#eb6354" transform="rotate(-45 12.5 8.5)"></rect><rect width="16.971" height="2" x="36.515" y="55" fill="#eb6354" transform="rotate(-45 45 56)"></rect><rect width="12.728" height="2" x="51.136" y="42.5" fill="#eb6354" transform="rotate(-45 57.5 43.5)"></rect><rect width="16.971" height="2" x="46.515" y="53" fill="#eb6354" transform="rotate(-45 55 54)"></rect></svg>