<svg xmlns="http://www.w3.org/2000/svg" enable-background="new 0 0 50 50" viewBox="0 0 50 50" id="Telescope"><path fill="#808080" d="M16.97811 4.23613c-.07001-.26001-.22998-.47998-.45001-.62l-3.97998-2.46997c-.46997-.29004-1.09003-.14001-1.38.32996L2.4081 15.64617c-.13995.22998-.17999.5-.12.75995.06.25.22003.48004.45001.62006l3.97998 2.45996c.16003.10004.34003.15002.52002.15002.34003 0 .65997-.17004.84998-.48004L16.8481 4.98613C16.98812 4.76616 17.03811 4.48613 16.97811 4.23613zM25.10811 19.46611c1.77002 0 3.38.69 4.56 1.83002l2.52002-4.08002c.28998-.46997.14996-1.08997-.32001-1.37994L17.8481 7.17614l-7.34998 11.89001 8.27002 5.12C19.58809 21.45617 22.11812 19.46611 25.10811 19.46611zM42.99813 26.49614l-10.27002-6.34998-1.76001 2.84998c.48999.91998.77002 1.97998.77002 3.09998 0 .74005-.12 1.45001-.34998 2.11005l7.63995 4.71997c.16003.10004.34003.15002.52002.15002.34003 0 .65997-.16003.84998-.47003l2.92004-4.73999C43.60811 27.40612 43.4681 26.78612 42.99813 26.49614zM47.26815 30.23613l-2.22003-1.37c-.01001.02002-.02997.04999-.03998.07001l-2.91003 4.71997c-.01001.02002-.01996.03003-.03998.05005l2.21997 1.37c.16003.09998.34003.14996.52002.14996.34003 0 .65997-.16998.84998-.46997l1.94-3.14001C47.87813 31.14617 47.73812 30.52617 47.26815 30.23613z" class="color010101 svgShape"></path><path fill="#808080" d="M26.1141,39.03209v-8.43317c2.06775-0.46051,3.62402-2.29901,3.62402-4.50281
			c0-2.5423-2.07178-4.63-4.63-4.63c-2.55664,0-4.62,2.11761-4.62,4.63c0,2.20801,1.55426,4.05035,3.62598,4.50641v8.42957
			l-7.04492,8.3233c-0.35645,0.42139-0.30371,1.05225,0.11719,1.40918c0.42231,0.35667,1.05266,0.30458,1.41016-0.11719
			l5.51758-6.51917v5.87317c0,0.55225,0.44727,1,1,1s1-0.44775,1-1v-5.87299l5.5166,6.51898
			c0.35645,0.4209,0.98633,0.47559,1.41015,0.11719c0.4209-0.35645,0.47363-0.98779,0.11719-1.40918L26.1141,39.03209z" class="color010101 svgShape"></path></svg>