<svg xmlns="http://www.w3.org/2000/svg" viewBox="0 0 48 48" id="alien"><g><g><path fill="#00dba8" d="M44 19c0 11-13.5 22.5-20 22.5S4 30.1 4 19 13 1.5 24 1.5 44 8 44 19z"></path><path fill="#00ad85" d="M24 38.4c-6.2 0-18.8-10.5-19.9-21-.1.5-.1 1.1-.1 1.6 0 11 13.5 22.5 20 22.5S44 30.1 44 19c0-.6 0-1.1-.1-1.7C42.8 28 30.2 38.4 24 38.4z"></path><path fill="none" stroke="#45413c" stroke-linecap="round" stroke-miterlimit="10" d="M29.1 30c-1.4 1-3.2 1.5-5 1.5-1.8 0-3.6-.6-5-1.5"></path><ellipse cx="24.1" cy="45" fill="#45413c" opacity=".15" rx="16" ry="1.5"></ellipse><path fill="none" stroke="#45413c" stroke-linecap="round" stroke-linejoin="round" stroke-miterlimit="10" d="M44 19c0 11-13.5 22.5-20 22.5S4 30.1 4 19 13 1.5 24 1.5 44 8 44 19z"></path><g><path fill="#bf8df2" d="M37.1 12.5c2.4 1.8 2.4 5.7.2 8.7-2.3 3-6.3 3.5-9 3.1-1.6-2.3-1.9-6.6.4-9.6 2.3-3.1 6-4 8.4-2.2z"></path><path fill="#dabff5" d="M37.1 15.2c-2.4-1.8-6.1-.9-8.4 2.1-.9 1.1-1.3 2.4-1.5 3.8-.3-2.1.1-4.6 1.5-6.5 2.3-3 6-3.9 8.4-2.1 1.6 1.2 2.1 3.3 1.7 5.4-.3-1.1-.8-2.1-1.7-2.7z"></path><path fill="none" stroke="#45413c" stroke-linecap="round" stroke-linejoin="round" stroke-miterlimit="10" d="M37.1 12.5c2.4 1.8 2.4 5.7.2 8.7-2.3 3-6.3 3.5-9 3.1-1.6-2.3-1.9-6.6.4-9.6 2.3-3.1 6-4 8.4-2.2z"></path></g><g><path fill="#bf8df2" d="M10.9 12.5c-2.4 1.8-2.4 5.7-.2 8.7 2.3 3 6.3 3.5 9 3.1 1.6-2.3 1.9-6.6-.4-9.6-2.3-3.1-6-4-8.4-2.2z"></path><path fill="#dabff5" d="M10.9 15.2c2.4-1.8 6.1-.9 8.4 2.1.9 1.1 1.3 2.4 1.5 3.8.3-2.1-.1-4.6-1.5-6.5-2.3-3-6-3.9-8.4-2.1-1.6 1.2-2.1 3.3-1.7 5.4.3-1.1.8-2.1 1.7-2.7z"></path><path fill="none" stroke="#45413c" stroke-linecap="round" stroke-linejoin="round" stroke-miterlimit="10" d="M10.9 12.5c-2.4 1.8-2.4 5.7-.2 8.7 2.3 3 6.3 3.5 9 3.1 1.6-2.3 1.9-6.6-.4-9.6-2.3-3.1-6-4-8.4-2.2z"></path></g><path fill="none" stroke="#45413c" stroke-linecap="round" stroke-linejoin="round" stroke-miterlimit="10" d="M25.6 26v1.5M22.6 26v1.5"></path><ellipse cx="34.9" cy="28.2" fill="#00ad85" rx="2.5" ry="1.5"></ellipse><ellipse cx="13.3" cy="28.2" fill="#00ad85" rx="2.5" ry="1.5"></ellipse><ellipse cx="24" cy="5.4" fill="#00f5bc" rx="6" ry="1.5"></ellipse></g></g></svg>