<svg xmlns="http://www.w3.org/2000/svg" enable-background="new 0 0 32 32" viewBox="0 0 32 32" id="ufo"><g><path fill="#3a3a3a" d="M24.597,17.744l-1.968,5.063c-0.498,1.28-1.595,2.233-2.935,2.532C18.645,25.573,17.4,25.745,16,25.745
		s-2.645-0.173-3.694-0.406c-1.341-0.298-2.438-1.251-2.935-2.532l-1.968-5.063H24.597z"></path><path fill="#333" d="M24.6,17.745l-1.97,5.06c-0.5,1.28-1.6,2.24-2.94,2.53c-1.05,0.24-2.29,0.41-3.69,0.41
		c-0.56,0-1.09-0.03-1.6-0.08c0.76-0.07,1.46-0.19,2.09-0.33c1.34-0.29,2.43-1.25,2.93-2.53l1.97-5.06H24.6z"></path><path fill="#d7cfc5" d="M30,16.625c0,1.99-2.59,3.73-6.5,4.73c-2.17,0.55-4.74,0.87-7.5,0.87c-7.73,0-14-2.51-14-5.6
		c0-3.1,6.27-5.61,14-5.61c2.08,0,4.06,0.18,5.84,0.51C26.66,12.415,30,14.365,30,16.625z"></path><path fill="#d7cfc5" d="M30,16.63c0,1.81-2.14,3.41-5.47,4.43c-0.27,0.09-0.55,0.17-0.84,0.25c-0.06,0.02-0.13,0.03-0.19,0.05
		c-2.17,0.55-4.74,0.87-7.5,0.87c-2.84,0-5.48-0.34-7.69-0.93c-0.29-0.07-0.57-0.15-0.84-0.23C4.14,20.04,2,18.44,2,16.63
		c0-3.1,6.27-5.61,14-5.61c2.08,0,4.06,0.18,5.84,0.51C26.66,12.42,30,14.37,30,16.63z"></path><path fill="#c4bcb3" d="M30,16.625c0,1.99-2.59,3.73-6.5,4.73c0.276-0.445,1.696-2.834,0.937-5.829
		c-0.574-2.269-2.067-3.577-2.597-4.001C26.66,12.415,30,14.365,30,16.625z"></path><ellipse cx="6" cy="16.439" fill="#ffd731" rx="1.202" ry="1.356" transform="rotate(-55.005 6 16.44)"></ellipse><ellipse cx="26" cy="16.439" fill="#ffc933" rx="1.356" ry="1.202" transform="rotate(-34.995 25.997 16.438)"></ellipse><ellipse cx="16" cy="19.567" fill="#ffd731" rx="1.471" ry="1.166"></ellipse><path fill="#83dcff" d="M23.663,13.922c0,1.647-3.423,2.981-7.663,2.981s-7.663-1.335-7.663-2.981c0-4.23,3.423-7.663,7.663-7.663
		S23.663,9.693,23.663,13.922z"></path><path fill="#7acfea" d="M23.66,13.925c0,1.2-1.82,2.23-4.45,2.7c1.04-0.54,1.65-1.22,1.65-1.95c0-4.02-2.82-7.39-6.6-8.22
		c0.56-0.13,1.14-0.2,1.74-0.2C20.24,6.255,23.66,9.695,23.66,13.925z"></path><path fill="#c2f4ff" d="M13.819 8.517c-.104-.211-.363-.297-.568-.193-1.06.522-1.946 1.33-2.566 2.335-.123.2-.061.462.14.585.069.043.146.063.223.063.143 0 .281-.072.362-.202.535-.87 1.302-1.568 2.217-2.019C13.837 8.982 13.924 8.727 13.819 8.517zM10.48 12.041c-.226-.06-.459.078-.517.306l-.039.158c-.053.229.089.458.317.511.032.007.065.011.097.011.193 0 .368-.133.414-.329l.033-.14C10.845 12.331 10.708 12.099 10.48 12.041z"></path></g></svg>